<svg xmlns="http://www.w3.org/2000/svg" xmlns:xlink="http://www.w3.org/1999/xlink" width="100%" height="100%" version="1.1" viewBox="0 0 1024 1024" xml:space="preserve" style="fill-rule:evenodd;clip-rule:evenodd"><rect id="background" width="1024" height="1024" x="0" y="0" style="fill:#6753a8"/><g id="foreground"><g><g><g><clipPath id="_clip1"><rect width="735" height="750" x="144.5" y="137"/></clipPath><g clip-path="url(#_clip1)"><g id="Spiro"><g id="Page-1"><g id="Spiro1"><path id="spiro" d="M699.5,512l0,3.25l0.25,1l0,1.5l0.25,1l0,0.75l0.25,0.75l0.25,1l0,0.75l0.25,1l0.25,0.75l0.25,1l0,1l0.25,0.75l0.5,2l0.25,0.75l0.5,1l1,4l0.5,1l0.25,1.25l0.25,1l0.5,1l0.25,1l0.5,1.25l0.25,1l0.5,1.25l0.25,1.25l0.5,1.25l0.5,1l0.25,1.25l1,2.5l0.25,1.5l0.5,1.25l0.25,1.25l0.5,1.5l0.5,1.25l0.25,1.5l0.5,1.5l0.5,1.25l0.25,1.5l1,3l0.25,1.75l0.5,1.5l0.25,1.5l0.5,1.75l0.25,1.5l0.5,1.75l0.5,3.5l0.5,1.75l0.5,3.5l0.25,2l0.5,1.75l0.25,2l0.25,1.75l0.25,2l0,2l0.75,6l0,2l0.25,2l0,4.25l0.25,2.25l0,6.5l-0.25,2.25l0,4.5l-0.25,2.5l0,2.25l-0.25,2.25l-0.5,5l-0.25,2.25l-0.5,5l-0.5,2.5l-0.5,2.25l-0.25,2.5l-0.5,2.75l-1,5l-0.75,2.5l-0.5,2.5l-0.75,2.75l-0.75,2.5l-0.75,2.75l-0.75,2.5l-0.75,2.75l-1,2.5l-0.75,2.75l-1,2.75l-1,2.5l-2,5.5l-1.25,2.5l-1,2.75l-2.5,5.5l-1.25,2.5l-1.5,2.75l-1.25,2.75l-3,5.5l-1.5,2.5l-1.5,2.75l-1.75,2.75l-1.5,2.75l-1.75,2.5l-3.5,5.5l-2,2.5l-1.75,2.75l-2,2.5l-2,2.75l-2,2.5l-2.25,2.75l-2,2.5l-6.75,7.5l-2.25,2.75l-2.5,2.25l-2.25,2.5l-5,5l-2.75,2.25l-2.5,2.5l-2.75,2.25l-2.75,2.5l-8.25,6.75l-3,2.25l-3,2l-2.75,2.25l-3.25,2.001l-3,2.25l-3,2l-9.75,6l-3.25,1.75l-3.25,2l-3.5,1.75l-3.25,1.75l-7,3.5l-3.5,1.5l-3.5,1.75l-3.5,1.5l-7.5,3l-3.5,1.25l-3.75,1.5l-3.75,1.25l-4,1.25l-3.75,1.25l-3.75,1l-4,1.25l-4,1l-3.75,1l-4,1l-4,0.75l-4,1l-4,0.75l-4.25,0.75l-4,0.5l-4.25,0.75l-4,0.5l-4.25,0.5l-4,0.5l-17,1l-4.25,-0l-4.25,0.25l-4.25,-0l-4.25,-0.25l-4.25,-0l-4.5,-0.25l-8.5,-0.5l-4.5,-0.5l-8.5,-1l-4.5,-0.5l-8.5,-1.5l-4.5,-0.75l-4.25,-0.75l-8.5,-2l-4.5,-1l-4.25,-1l-12.75,-3.75l-4.25,-1.5l-4.25,-1.25l-4.25,-1.5l-4.25,-1.75l-4.25,-1.5l-4.25,-1.75l-4,-1.75l-4.25,-1.75l-4,-2l-4.25,-2l-8,-4l-16,-9l-4,-2.5l-3.75,-2.501l-4,-2.5l-3.75,-2.5l-3.75,-2.75l-3.75,-2.5l-3.75,-2.75l-3.5,-3l-3.75,-2.75l-14,-12l-3.5,-3.25l-3.25,-3.25l-3.5,-3.25l-6.5,-6.5l-3,-3.5l-3.25,-3.5l-9,-10.5l-3,-3.75l-2.75,-3.5l-3,-3.75l-2.75,-3.75l-2.75,-4l-2.5,-3.75l-2.5,-4l-2.75,-3.75l-2.5,-4l-2.25,-4l-2.5,-4l-2.25,-4.25l-2.25,-4l-2,-4.25l-2.25,-4l-6,-12.75l-3.5,-8.5l-1.75,-4.5l-1.75,-4.25l-1.5,-4.5l-1.5,-4.25l-3,-9l-3.75,-13.5l-1,-4.5l-1.25,-4.5l-0.75,-4.5l-2,-9l-0.75,-4.5l-0.75,-4.75l-1,-9l-0.5,-4.75l-1,-9l-0.25,-4.75l-0.25,-4.5l0,-4.5l-0.25,-4.75l0,-9l0.25,-4.75l0,-4.5l0.25,-4.5l0.5,-4.5l0.25,-4.5l1.5,-13.5l2.25,-13.5l0.75,-4.25l1,-4.5l1,-4.25l1,-4.5l1,-4.25l5,-17l1.5,-4.25l1.25,-4.25l1.5,-4l1.75,-4l1.5,-4.25l5.25,-12l1.75,-3.75l2,-4l2,-3.75l2,-4l2,-3.75l2.25,-3.75l2,-3.5l2.25,-3.75l2.25,-3.5l2.25,-3.75l2.25,-3.5l2.5,-3.5l2.5,-3.25l2.5,-3.5l7.5,-9.75l5.5,-6.5l2.5,-3l2.75,-3l3,-3l5.5,-6l3,-2.75l2.75,-2.75l9,-8.25l6,-5l3.25,-2.5l3,-2.5l3.25,-2.25l3,-2.25l9.75,-6.75l3,-2l6.5,-4l3.5,-2l3.25,-1.75l3.25,-2l3.25,-1.75l3.25,-1.5l3.5,-1.75l3.25,-1.5l3.25,-1.75l3.5,-1.5l3.25,-1.25l3.5,-1.5l3.25,-1.25l3.5,-1.25l3.25,-1.25l3.5,-1.25l6.5,-2l3.5,-1l3.25,-1l3.5,-1l6.5,-1.5l3.5,-0.75l6.5,-1.5l3.5,-0.5l13,-2l13,-1l3,-0.25l3.25,0l3.25,-0.25l6.25,0l3,0.25l6,0l15,1.25l2.75,0.5l3,0.25l2.75,0.5l3,0.5l8.25,1.5l2.75,0.75l2.5,0.5l2.75,0.75l2.5,0.5l2.75,0.75l7.5,2.25l2.5,1l2.5,0.75l2.25,0.75l2.5,1l2.25,0.75l13.5,6l4,2l2.25,1l2,1l2,1.25l1.75,1l2,1l2,1.25l1.75,1l1.75,1.25l2,1l1.75,1.25l1.5,1.25l1.75,1l1.75,1.25l1.5,1l1.75,1.25l1.5,1.25l1.5,1l3,2.5l1.5,1l1.5,1.25l1.25,1.25l1.5,1l1.25,1.25l1.5,1.25l1.25,1l2.5,2.5l1.25,1l1,1.25l1.25,1l6.5,6.5l1,1.25l3,3l0.75,1l1,1l0.75,1l1,1l0.75,1l1,0.75l1.5,2l1.75,1.75l0.75,1l1.5,1.5l0.75,1l1.5,1.5l0.5,0.75l3,3l0.5,0.75l0.75,0.75l0.75,0.5l2,2l0.75,0.5l0.5,0.75l1.5,1l0.5,0.5l1.5,1l0.5,0.5l2.25,1.5l0.5,0.5l0.75,0.25l1.5,1l0.75,0.25l0.75,0.5l0.75,0.25l0.75,0.5l1.5,0.5l0.75,0.5l0.75,0.25l1,0.25l1.5,0.5l1,0.5l0.75,0.25l1,0.25l0.75,0.25l3,0.75l0.75,0.25l3,0.75l1,0l1.25,0.25l2,0.5l1.25,0.25l1,0.25l1.25,0.25l1,0.25l10,2l1.5,0.25l1.25,0.5l1.5,0.25l1.25,0.25l1.5,0.5l1.25,0.25l1.5,0.25l3,1l1.5,0.25l1.5,0.5l1.75,0.5l1.5,0.25l1.5,0.5l1.75,0.5l1.5,0.5l1.75,0.75l1.5,0.5l1.75,0.5l1.75,0.75l1.75,0.5l1.5,0.75l1.75,0.5l3.5,1.5l2,0.75l3.5,1.5l1.75,1l2,0.75l1.75,1l1.75,0.75l2,1l1.75,1l4,2l1.75,1l2,1.25l1.75,1l6,3.75l1.75,1.25l2,1.25l2,1.5l2,1.25l2,1.5l1.75,1.5l8,6l1.75,1.75l6,5.25l1.75,1.75l2,1.75l2,2l1.75,2l2,1.75l1.75,2l2.001,2.25l1.75,2l2,2l8.75,11.25l1.75,2.5l1.75,2.25l5.25,7.5l1.5,2.5l1.75,2.75l1.5,2.5l7.5,13.75l1.5,3l1.25,3l1.5,2.75l2.5,6l1.25,3.25l2.5,6l1,3.25l1.25,3.25l5,16.25l1.5,7l0.75,3.25l2.25,10.5l0.5,3.5l0.5,3.75l1,7l0.5,3.75l0.25,3.75l0.25,3.5l0.75,11.25l-0,15.25l-0.5,7.5l-0.25,4l-0.25,3.75l-0.25,4l-0.5,3.75l-0.5,4l-0.5,3.75l-0.5,4l-0.75,4l-0.75,3.75l-1.5,8l-1,3.75l-2,8l-1,3.75l-1,4l-1.25,4l-1.25,3.75l-1.25,4l-1.5,3.75l-1.5,4l-1.5,3.75l-1.5,4l-1.5,3.75l-1.75,4l-3.5,7.5l-4,7.5l-1.75,3.75l-2.25,3.75l-2,3.75l-4.5,7.5l-2.25,3.5l-2.25,3.75l-5,7l-2.5,3.75l-2.5,3.5l-2.75,3.25l-2.501,3.5l-2.75,3.5l-3,3.25l-2.75,3.5l-12,13l-3.25,3.25l-3.25,3l-3,3l-3.5,3l-3.25,3l-3.5,3.001l-3.25,3l-7,5.5l-3.75,2.75l-3.5,2.75l-3.75,2.75l-11.25,7.5l-4,2.5l-3.75,2.5l-16,9l-4,2l-4.25,2l-4,2l-4.25,2l-4.25,1.75l-4.25,2l-4.25,1.5l-4.25,1.75l-4.5,1.75l-4.25,1.5l-4.5,1.5l-4.25,1.5l-18,5l-13.5,3l-4.75,1l-9,1.5l-4.75,0.75l-4.5,0.5l-9.5,1l-4.5,0.5l-4.75,0.25l-4.5,0.25l-9.5,0.5l-14,-0l-4.75,-0.25l-4.5,-0.25l-9.5,-0.5l-4.5,-0.5l-4.75,-0.5l-4.5,-0.5l-4.75,-0.75l-4.5,-0.75l-4.75,-0.75l-4.5,-0.75l-4.5,-1l-4.75,-1l-9,-2l-13.5,-3.75l-4.25,-1.5l-4.5,-1.25l-4.25,-1.5l-4.5,-1.75l-4.25,-1.5l-4.25,-1.75l-4.5,-1.75l-4,-1.75l-4.25,-2l-4.25,-1.75l-4.25,-2l-4,-2.25l-4,-2l-4.25,-2.25l-4,-2.25l-3.75,-2.25l-4,-2.25l-4,-2.5l-15,-10l-3.75,-2.75l-7,-5.5l-3.75,-2.75l-3.25,-3l-3.5,-2.75l-3.5,-3.001l-6.5,-6l-3.25,-3.25l-3.25,-3l-3,-3.25l-6.25,-6.25l-3,-3.5l-2.75,-3.25l-3,-3.25l-5.5,-7l-2.5,-3.25l-2.75,-3.5l-2.5,-3.5l-2.5,-3.75l-5,-7l-2.25,-3.75l-2.25,-3.5l-4.5,-7.5l-8,-15l-3.5,-7.5l-1.75,-4l-1.75,-3.75l-1.5,-3.75l-1.75,-4l-1.25,-3.75l-1.5,-4l-1.5,-3.75l-2.5,-8l-1.25,-3.75l-2,-8l-1,-3.75l-1,-4l-0.75,-4l-1,-3.75l-1.5,-8l-0.5,-3.75l-0.5,-4l-0.75,-3.75l-0.25,-4l-0.5,-3.75l-0.25,-4l-0.5,-3.75l0,-4l-0.5,-7.5l0,-11.5l0.25,-3.75l0,-3.75l0.5,-7.5l0.25,-3.5l0.5,-3.75l0.25,-3.5l0.5,-3.75l0.5,-3.5l0.5,-3.75l0.75,-3.5l0.5,-3.5l1.5,-7l0.75,-3.25l1,-3.5l0.75,-3.25l1,-3.5l4,-13l1.25,-3.25l1,-3l1.25,-3.25l5,-12l1.5,-3l1.25,-2.75l1.5,-3l7.5,-13.75l1.75,-2.5l1.5,-2.75l3.5,-5l1.5,-2.5l1.75,-2.5l1.75,-2.25l1.75,-2.5l5.25,-6.75l2,-2.25l1.75,-2l1.75,-2.25l2,-2l1.75,-2l2,-2l1.75,-2l2,-2l2,-1.75l1.75,-2l4,-3.5l1.75,-1.75l2,-1.5l2,-1.75l4,-3l1.75,-1.75l2,-1.5l2,-1.25l2,-1.5l2,-1.25l1.75,-1.5l6,-3.75l1.75,-1.25l2,-1.25l2,-1l1.75,-1l2,-1.25l2,-1l1.75,-1l2,-1l1.75,-1l2,-0.75l1.75,-1l1.75,-0.75l2,-0.75l1.75,-1l3.5,-1.5l1.75,-0.5l3.5,-1.5l1.75,-0.5l1.75,-0.75l1.5,-0.5l1.75,-0.75l1.75,-0.5l1.5,-0.5l1.75,-0.5l3,-1l1.75,-0.5l1.5,-0.25l3,-1l1.5,-0.25l1.5,-0.5l1.5,-0.25l1.25,-0.5l3,-0.5l1.25,-0.5l1.5,-0.25l11.25,-2.25l1,-0.25l1.25,-0.25l1,-0.25l1.25,-0.25l4,-1l1.25,-0.25l0.75,-0.25l1,0l3,-0.75l0.75,-0.25l1,-0.25l0.75,-0.5l1,-0.25l0.75,-0.25l1,-0.25l1.5,-0.5l0.75,-0.5l1,-0.25l0.75,-0.25l0.75,-0.5l1.5,-0.5l1.5,-1l0.5,-0.25l1.5,-1l0.75,-0.25l0.75,-0.5l0.5,-0.5l2.25,-1.5l0.5,-0.5l0.75,-0.5l1.25,-1.25l0.75,-0.5l2,-2l0.75,-0.5l0.5,-0.75l1.5,-1.5l0.75,-0.5l0.5,-0.75l1.5,-1.5l0.75,-1l2.25,-2.25l0.75,-1l0.75,-0.75l0.75,-1l0.75,-0.75l0.75,-1l1.75,-1.75l0.75,-1l1,-1l0.75,-1l2,-2l0.75,-1l3,-3l1,-1.25l6.5,-6.5l1.25,-1l1,-1.25l1.25,-1l2.5,-2.5l1.25,-1l1.5,-1.25l1.25,-1l1.5,-1.25l1.25,-1.25l1.5,-1l3,-2.5l1.5,-1l3,-2.5l1.75,-1l1.5,-1.25l1.75,-1.25l1.75,-1l3.5,-2.5l1.75,-1l1.75,-1.25l2,-1l1.75,-1l2,-1.25l2,-1l2,-1.25l4,-2l2.25,-1l2,-1l4.5,-2l2,-1l2.25,-1l2.5,-1l2.25,-0.75l2.25,-1l2.5,-0.75l2.25,-1l12.5,-3.75l2.75,-0.75l2.5,-0.75l2.75,-0.5l2.75,-0.75l2.75,-0.5l2.5,-0.5l3,-0.75l2.75,-0.5l2.75,-0.25l2.75,-0.5l3,-0.5l3,-0.25l2.75,-0.25l12,-1l3,0l3.25,-0.25l6,0l3.25,0.25l6.25,0l13,1l3.25,0.5l3.25,0.25l9.75,1.5l3.25,0.75l3.5,0.5l6.5,1.5l3.5,1l3.25,0.75l3.25,1l3.5,0.75l3.25,1l3.5,1.25l3.25,1l3.5,1.25l3.25,1.25l3.5,1.25l3.25,1.25l3.5,1.5l6.5,3l3.5,1.5l3.25,1.5l3.25,1.75l3.5,1.75l6.5,3.5l3.25,2l3.25,1.75l3.25,2l3.25,2.25l3.25,2l6.5,4.5l3,2.25l3.25,2.25l3.001,2.25l3.25,2.5l6,5l3,2.75l3,2.5l9,8.25l2.75,3l5.75,5.75l5.5,6l2.75,3.25l2.5,3l2.75,3.25l5,6.5l2.5,3.5l2.5,3.25l2.5,3.5l2.25,3.5l2.5,3.5l2.25,3.75l2.25,3.5l2.25,3.75l2,3.5l2.25,3.75l2,4l2,3.75l1.75,3.75l2,4l1.75,4l2,3.75l1.5,4l1.75,4.25l1.75,4l1.5,4l3,8.5l1.25,4l3.75,12.75l1.25,4.5l2,8.5l1,4.5l1,4.25l2.25,13.5l0.5,4.25l1.5,13.5l0.5,4.75l0.5,9l-0,4.5l0.25,4.5l-0,9.25l-0.25,4.5l-0,4.75l-0.25,4.5l-0.5,4.5l-0.25,4.75l-1,9l-0.5,4.75l-1.5,9l-0.75,4.75l-1,4.5l-0.75,4.5l-1,4.5l-1.25,4.5l-1,4.5l-3.75,13.5l-1.5,4.5l-1.5,4.25l-1.5,4.5l-1.75,4.25l-1.5,4.5l-3.5,8.5l-2,4.5l-2,4.25l-2,4l-4,8.5l-2.25,4l-2.25,4.25l-2.25,4l-2.5,4l-2.25,4l-2.5,4l-2.75,4l-2.5,3.75l-2.75,4l-8.25,11.25l-2.75,3.5l-3,3.75l-6,7l-3.25,3.5l-3,3.5l-3.25,3.5l-9.75,9.75l-3.5,3.25l-3.5,3l-3.5,3.25l-7.001,6l-3.5,2.75l-3.75,3l-3.5,2.75l-7.5,5.5l-3.75,2.5l-4,2.5l-3.75,2.501l-4,2.5l-3.75,2.5l-12,6.75l-4,2l-4,2.25l-4.25,2l-4,1.75l-4,2l-8.5,3.5l-4,1.75l-4.25,1.75l-8.5,3l-4.25,1.25l-4.25,1.5l-8.5,2.5l-4.5,1.25l-12.75,3l-4.5,1l-8.5,1.5l-4.5,0.75l-4.25,0.5l-4.25,0.75l-4.5,0.5l-4.25,0.5l-4.25,0.25l-4.5,0.25l-8.5,0.5l-4.25,-0l-4.25,0.25l-4.25,-0l-4.5,-0.25l-4.25,-0l-4,-0.25l-8.5,-0.5l-4.25,-0.5l-4.25,-0.25l-4,-0.5l-4.25,-0.75l-4,-0.5l-4.25,-0.75l-12,-2.25l-12,-3l-3.75,-1l-4,-1l-3.75,-1.25l-4,-1.25l-7.5,-2.5l-3.75,-1.5l-3.5,-1.5l-3.75,-1.25l-3.5,-1.5l-3.75,-1.75l-3.5,-1.5l-10.5,-5.25l-3.25,-1.75l-3.5,-1.75l-3.25,-1.75l-9.75,-6l-3,-2l-3.25,-2l-3,-2l-3,-2.251l-3,-2l-3,-2.25l-5.5,-4.5l-3,-2.25l-2.75,-2.25l-2.5,-2.5l-2.75,-2.25l-2.5,-2.25l-2.75,-2.5l-5,-5l-2.25,-2.5l-2.5,-2.5l-9,-10l-2,-2.5l-2.25,-2.75l-2,-2.5l-2,-2.75l-1.75,-2.5l-2,-2.75l-1.75,-2.5l-5.25,-8.25l-1.75,-2.5l-3,-5.5l-1.75,-2.75l-1.25,-2.5l-3,-5.5l-2.5,-5.5l-1.25,-2.5l-1.25,-2.75l-1,-2.75l-1.25,-2.75l-1,-2.5l-2,-5.5l-1,-2.5l-0.75,-2.75l-1,-2.5l-0.75,-2.75l-0.75,-2.5l-0.75,-2.75l-0.75,-2.5l-0.5,-2.75l-0.75,-2.5l-1.5,-7.5l-0.5,-2.75l-0.5,-2.5l-0.25,-2.25l-0.5,-2.5l-0.5,-5l-0.25,-2.25l-0.25,-2.5l-0.25,-2.25l-0.25,-2.5l0,-2.25l-0.25,-2.25l0,-2.5l-0.25,-2.25l0,-8.75l0.25,-2l0,-4.25l0.25,-2.25l0.25,-2l0,-2l0.75,-6l0.25,-1.75l0.5,-4l0.75,-5.25l0.5,-1.75l0.5,-3.5l0.5,-1.75l0.25,-1.75l0.5,-1.5l0.25,-1.75l0.5,-1.5l0.25,-1.75l0.5,-1.5l0.25,-1.5l1,-3l0.25,-1.5l0.5,-1.25l0.5,-1.5l0.25,-1.25l0.5,-1.5l0.5,-1.25l0.25,-1.25l0.5,-1.5l0.25,-1.25l1,-2.5l0.25,-1l0.5,-1.25l0.25,-1.25l0.5,-1l0.25,-1.25l0.5,-1l0.25,-1.25l0.5,-1l0.25,-1l0.5,-1.25l0.75,-3l0.5,-1l0.25,-0.75l1,-4l0.25,-0.75l0.25,-1l0,-0.75l0.25,-1l0.25,-0.75l0.25,-1l0,-0.75l0.25,-1l0,-0.75l0.25,-0.75l0,-1.75l0.25,-0.75l0,-6l-0.25,-0.75l0,-1.75l-0.25,-0.75l0,-1.75l-0.25,-0.75l-0.25,-1l0,-0.75l-0.25,-1l-0.25,-0.75l-0.25,-1l-0.25,-0.75l-0.5,-2l-0.25,-0.75l-1.25,-5l-0.5,-1l-0.5,-2l-0.5,-1.25l-0.25,-1l-0.5,-1l-0.25,-1.25l-0.5,-1l-0.25,-1.25l-0.5,-1.25l-0.25,-1.25l-0.5,-1l-0.5,-1.25l-0.25,-1.25l-0.5,-1.25l-0.5,-1.5l-0.25,-1.25l-0.5,-1.25l-0.25,-1.5l-0.5,-1.25l-0.5,-1.5l-0.25,-1.5l-1,-3l-0.25,-1.5l-0.5,-1.5l-0.25,-1.5l-0.5,-1.5l-0.5,-1.75l-0.25,-1.5l-0.5,-1.75l-0.25,-1.75l-0.25,-1.5l-0.5,-1.75l-0.25,-1.75l-0.25,-2l-0.25,-1.75l-0.5,-1.75l-0.25,-2l-0.25,-1.75l-0.25,-2l-0.25,-1.75l-0.25,-2l0,-2l-0.5,-4l0,-2.25l-0.25,-2l0,-4.25l-0.25,-2.25l0,-6.5l0.25,-2.25l0,-4.5l0.25,-2.5l0,-2.25l0.25,-2.25l0.25,-2.5l0.25,-2.25l0.5,-5l0.5,-2.5l0.25,-2.5l3,-15l0.75,-2.75l0.75,-2.5l0.5,-2.5l0.75,-2.75l0.75,-2.5l1,-2.75l0.75,-2.5l2,-5.5l1,-2.5l2,-5.5l1.25,-2.75l1,-2.5l3.75,-8.25l1.5,-2.5l1.25,-2.75l4.5,-8.25l1.5,-2.5l3.5,-5.5l1.5,-2.75l1.75,-2.5l2,-2.75l1.75,-2.5l4,-5.5l4,-5l2,-2.75l6.75,-7.5l2.25,-2.75l2.25,-2.5l7.25,-7.25l2.75,-2.5l2.5,-2.25l2.5,-2.5l2.75,-2.25l2.75,-2.5l5.5,-4.5l3,-2.25l2.75,-2l6,-4.5l6,-4l3.25,-2.25l3.25,-2l3,-1.75l6.5,-4l3.5,-1.75l3.25,-1.75l10.5,-5.25l3.5,-1.5l3.5,-1.75l3.5,-1.5l7.5,-3l3.5,-1.25l3.75,-1.5l3.75,-1.25l4,-1.25l3.75,-1.25l3.75,-1l4,-1.25l8,-2l3.75,-1l4,-0.75l4.25,-0.75l12,-2.25l8.5,-1l4,-0.5l4.25,-0.5l4.25,-0.25l4.25,-0.5l4,0l8.5,-0.5l8.75,0l4.25,0.25l4.25,0l8.5,0.5l4.5,0.5l4.25,0.25l4.25,0.5l4.5,0.5l4.25,0.75l4.25,0.5l4.5,0.75l4.25,0.75l4.25,1l4.5,0.75l4.25,1l4.25,1.25l4.25,1l4.5,1.25l8.5,2.5l17,6l4,1.75l8.5,3.5l4,1.75l4.25,2l8,4l4.25,2l8,4.5l3.75,2.25l4,2.25l4,2.5l3.75,2.5l4,2.5l3.75,2.5l11.25,8.25l3.5,2.75l3.75,2.75l10.501,9l3.5,3.25l3.5,3l9.75,9.75l6.5,7l3,3.25l3.25,3.5l3,3.75l3,3.5l2.75,3.75l3,3.5l5.5,7.5l2.75,4l2.5,3.75l2.75,4l2.5,3.75l2.5,4l2.25,4l2.25,4.25l2.5,4l2.25,4l2,4.25l2.25,4.25l2,4l2,4.25l1.75,4.25l2,4.5l3.5,8.5l1.5,4.5l1.5,4.25l3,9l1.5,4.25l3.75,13.5l3,13.5l1,4.75l2.25,13.5l0.75,4.75l1,9l0.25,4.75l0.5,4.5l0.25,4.5l0.25,4.75l0.25,4.5l-0,13.75l-0.25,4.5l-0.25,4.75l-0.5,9l-0.5,4.5l-0.25,4.5l-0.5,4.5l-0.75,4.5l-0.5,4.5l-0.75,4.25l-0.75,4.5l-1,4.5l-1,4.25l-0.75,4.5l-1.25,4.25l-1,4.25l-1.25,4.5l-3.75,12.75l-1.5,4l-1.5,4.25l-1.5,4l-1.5,4.25l-1.75,4l-1.5,4l-1.75,4l-2,4l-1.75,4l-2,3.75l-1.75,3.75l-2.25,4l-4,7.5l-2.25,3.5l-2.25,3.75l-2.25,3.5l-2.25,3.75l-2.25,3.5l-2.5,3.25l-5,7l-7.5,9.75l-2.75,3.25l-2.75,3l-2.75,3.25l-8.25,9l-3,2.75l-5.75,5.75l-3,2.5l-6,5.5l-9,7.5l-3.25,2.25l-3.001,2.5l-6.5,4.5l-3,2.25l-3.25,2l-3.25,2.25l-6.5,4l-3.25,1.75l-3.25,2l-3.5,1.75l-6.5,3.5l-3.25,1.5l-3.5,1.75l-3.25,1.5l-3.5,1.5l-3.25,1.25l-3.25,1.5l-3.5,1.25l-3.25,1.25l-3.5,1.25l-3.25,1.25l-3.5,1l-3.25,1l-3.5,1l-3.25,1l-3.25,0.75l-3.5,1l-3.25,0.75l-3.5,0.75l-3.25,0.75l-6.5,1l-3.5,0.75l-3.25,0.5l-3.25,0.25l-3.25,0.5l-6.5,0.5l-3,0.25l-6.5,0.5l-3.25,0l-3,0.25l-6.25,0l-3,-0.25l-3.25,0l-3,-0.25l-3,0l-6,-0.5l-2.75,-0.25l-3,-0.5l-3,-0.25l-2.75,-0.5l-3,-0.25l-8.25,-1.5l-2.75,-0.75l-2.75,-0.5l-2.5,-0.75l-2.75,-0.5l-2.5,-0.75l-2.75,-0.75l-10,-3l-2.5,-1l-2.25,-0.75l-2.5,-1l-2.25,-0.75l-4.5,-2l-2.25,-0.75l-4.5,-2l-2,-1l-2.25,-1.25l-6,-3l-2,-1.25l-4,-2l-1.75,-1.25l-2,-1l-1.75,-1.25l-1.75,-1l-1.75,-1.25l-1.75,-1l-1.75,-1.25l-1.5,-1.25l-1.75,-1l-3,-2.5l-1.75,-1l-3,-2.5l-1.25,-1l-3,-2.5l-1.25,-1l-1.25,-1.25l-1.5,-1.25l-1.25,-1l-1.25,-1.25l-1.25,-1l-1.25,-1.25l-1,-1.25l-1.25,-1l-3.25,-3.25l-1,-1.25l-1.25,-1l-2,-2l-1,-1.25l-0.75,-1l-3,-3l-0.75,-1l-1.75,-1.75l-0.75,-1l-1,-1l-0.75,-1l-0.75,-0.75l-0.75,-1l-0.75,-0.75l-0.75,-1l-1.5,-1.5l-0.75,-1l-3,-3l-0.5,-0.75l-0.75,-0.75l-0.75,-0.5l-0.75,-0.75l-0.5,-0.75l-0.75,-0.5l-2,-2l-0.75,-0.5l-1.25,-1.25l-1.5,-1l-0.5,-0.5l-1.5,-1l-0.5,-0.5l-0.75,-0.25l-1.5,-1l-0.75,-0.25l-1.5,-1l-0.75,-0.25l-0.75,-0.5l-1.5,-0.5l-0.75,-0.5l-2.25,-0.75l-1,-0.5l-0.75,-0.25l-1,-0.25l-0.75,-0.25l-1,-0.25l-0.75,-0.25l-2,-0.5l-0.75,-0.25l-5,-1.25l-1.25,-0.25l-1,0l-1,-0.25l-1.25,-0.25l-1,-0.25l-1.25,-0.25l-1,-0.25l-8.75,-1.75l-1.25,-0.5l-1.5,-0.25l-1.25,-0.25l-1.5,-0.25l-1.25,-0.5l-3,-0.5l-1.25,-0.5l-1.5,-0.25l-3,-1l-1.75,-0.25l-4.5,-1.5l-1.75,-0.5l-1.5,-0.5l-3.5,-1l-1.5,-0.75l-1.75,-0.5l-1.75,-0.75l-1.75,-0.5l-10.5,-4.5l-2,-0.75l-1.75,-1l-1.75,-0.75l-2,-1l-1.75,-1l-2,-1l-1.75,-1l-4,-2l-1.75,-1.25l-2,-1l-2,-1.25l-1.75,-1.25l-6,-3.75l-2,-1.5l-1.75,-1.25l-8,-6l-1.75,-1.5l-2,-1.75l-2,-1.5l-2,-1.75l-1.75,-1.75l-4,-3.5l-1.75,-2l-2,-1.75l-2,-2l-1.75,-2l-2,-2l-1.75,-2l-2,-2.25l-1.75,-2l-1.75,-2.25l-2,-2.25l-5.25,-6.75l-1.75,-2.5l-1.75,-2.25l-1.75,-2.5l-1.5,-2.5l-1.75,-2.5l-1.5,-2.5l-1.75,-2.75l-1.5,-2.75l-1.5,-2.5l-1.5,-2.75l-1.75,-2.75l-1.25,-2.75l-1.5,-3l-1.5,-2.75l-1.25,-3l-1.5,-3l-5,-12l-1.25,-3.25l-1,-3.25l-1.25,-3l-3,-9.75l-1,-3.5l-0.75,-3.25l-1,-3.5l-0.75,-3.25l-2.25,-10.5l-0.5,-3.5l-0.75,-3.5l-0.5,-3.75l-0.5,-3.5l-0.25,-3.5l-0.5,-3.75l-0.25,-3.75l-0.25,-3.5l-0.75,-11.25l0,-15.25l0.5,-7.5l0.25,-4l0.25,-3.75l0.5,-4l0.25,-3.75l1,-8l0.75,-3.75l0.75,-4l0.5,-3.75l1,-4l0.75,-4l1,-3.75l0.75,-4l1,-4l1.25,-3.75l1,-4l1.25,-4l1.25,-3.75l1.5,-4l1.25,-4l1.5,-3.75l1.5,-4l1.5,-3.75l1.75,-3.75l1.75,-4l5.25,-11.25l6,-11.25l6.75,-11.25l2.25,-3.5l2.25,-3.75l10,-14l8.25,-10.5l2.75,-3.25l3,-3.5l2.75,-3.25l6,-6.5l3.25,-3l3,-3.25l3.25,-3l3.25,-3.25l3.25,-3l3.5,-3l3.25,-2.75l3.5,-3l3.5,-2.75l3.5,-3l3.75,-2.5l3.5,-2.75l3.75,-2.75l11.25,-7.5l4,-2.5l3.75,-2.5l12,-6.75l4,-2l4.25,-2.25l4,-2l4.25,-2l4.25,-1.75l4,-2l4.25,-1.75l4.5,-1.75l4.25,-1.75l4.25,-1.5l4.5,-1.5l4.25,-1.5l4.5,-1.5l18,-5l13.5,-3l4.5,-0.75l4.75,-1l4.5,-0.75l4.75,-0.5l4.5,-0.75l4.75,-0.5l4.5,-0.5l4.75,-0.25l4.75,-0.5l4.5,-0.25l4.75,-0l4.75,-0.25l14,-0l4.5,0.25l9.5,0.5l4.5,0.5l4.75,0.25l4.75,0.5l4.5,0.75l4.75,0.5l9,1.5l4.75,1l4.5,0.75l4.5,1l4.5,1.25l4.5,1l13.5,3.75l9,3l8.5,3l4.5,1.75l4.25,1.5l4.25,1.75l4.25,2l4.25,1.75l4,2l4.25,2l4,2l4.25,2.25l12,6.75l3.75,2.25l4,2.5l11.25,7.5l3.75,2.75l3.75,2.5l7,5.5l3.5,3l3.5,2.75l3.5,3l3.25,3l3.5,3l6.5,6l3,3.25l3.25,3l9,9.75l2.75,3.5l3,3.25l2.75,3.5l2.75,3.25l2.751,3.5l7.5,10.5l2.5,3.75l2.5,3.5l2.25,3.75l2.25,3.5l2.25,3.75l2,3.75l2.25,3.75l4,7.5l1.75,3.75l2,3.75l1.75,3.75l1.75,4l1.5,3.75l1.75,3.75l1.5,4l1.5,3.75l1.25,4l1.5,4l1.25,3.75l1.25,4l1,3.75l1.25,4l1,4l1,3.75l1,4l0.75,4l0.75,3.75l1.5,8l0.75,3.75l1,8l0.5,3.75l0.25,4l0.5,3.75l0.25,4l0.25,3.75l-0,3.75l0.25,4l-0,11.25l-0.25,3.75l-0,3.75l-0.5,7.5l-0.5,3.5l-0.25,3.75l-0.5,3.5l-0.5,3.75l-1,7l-0.5,3.75l-0.75,3.5l-0.75,3.25l-2.25,10.5l-2,6.5l-0.75,3.5l-1,3.25l-1.25,3.25l-1,3l-1,3.25l-1.25,3.25l-2.5,6l-1.25,3.25l-1.25,3l-1.5,2.75l-1.25,3l-1.5,3l-1.25,2.75l-1.5,2.75l-1.5,3l-1.5,2.75l-1.5,2.5l-1.75,2.75l-1.5,2.5l-1.75,2.75l-1.5,2.5l-3.5,5l-1.5,2.5l-1.75,2.25l-1.75,2.5l-2,2.25l-5.25,6.75l-1.75,2l-2,2.25l-1.75,2l-2.001,2l-1.75,2l-2,2l-2,1.75l-1.75,2l-4,3.5l-1.75,1.75l-4,3.5l-2,1.5l-1.75,1.75l-6,4.5l-2,1.25l-1.75,1.5l-2,1.5l-6,3.75l-1.75,1.25l-2,1.25l-2,1l-1.75,1.25l-2,1l-2,1.25l-1.75,1l-2,1l-1.75,1l-2,0.75l-1.75,1l-1.75,0.75l-2,1l-10.5,4.5l-1.75,0.5l-1.75,0.75l-1.75,0.5l-1.75,0.75l-1.5,0.5l-3.5,1l-3,1l-1.75,0.5l-3,1l-1.5,0.25l-3,1l-1.5,0.25l-1.5,0.5l-1.5,0.25l-1.25,0.25l-1.5,0.5l-1.25,0.25l-1.5,0.25l-5,1l-1.25,0.5l-2.5,0.5l-1.25,0l-1.25,0.25l-1,0.25l-1.25,0.25l-1,0.25l-1.25,0.25l-9,2.25l-0.75,0.25l-2,0.5l-0.75,0.25l-1,0.25l-1.5,0.5l-1,0.25l-0.75,0.5l-1.5,0.5l-0.75,0.5l-1.5,0.5l-0.75,0.5l-0.75,0.25l-1.5,1l-0.75,0.25l-0.75,0.5l-0.5,0.5l-0.75,0.5l-0.75,0.25l-0.75,0.5l-0.5,0.5l-0.75,0.5l-0.75,0.75l-0.75,0.5l-0.5,0.5l-0.75,0.5l-2,2l-0.75,0.5l-0.5,0.75l-0.75,0.75l-0.75,0.5l-0.5,0.75l-3.75,3.75l-0.5,0.75l-0.75,1l-3.25,3.25l-1.5,2l-1.75,1.75l-0.75,1l-1,1l-0.75,1l-1,1l-0.75,1l-5,5l-1,1.25l-5.5,5.5l-1.25,1l-1,1.25l-1.25,1l-2.5,2.5l-1.5,1l-1.25,1.25l-1.25,1l-1.5,1.25l-1.25,1.25l-1.5,1l-3,2.5l-1.5,1l-1.5,1.25l-1.75,1.25l-1.5,1l-3.5,2.5l-1.5,1l-1.75,1.25l-1.75,1l-2,1.25l-1.75,1l-1.75,1.25l-2,1l-2,1.25l-4,2l-2,1.25l-4,2l-4.5,2l-2,1l-4.5,2l-2.25,0.75l-2.5,1l-2.25,1l-2.5,0.75l-2.25,0.75l-2.5,1l-7.5,2.25l-2.75,0.75l-2.5,0.75l-2.5,0.5l-2.75,0.75l-2.75,0.5l-2.75,0.75l-11,2l-3,0.25l-2.75,0.5l-6,0.5l-3,0.5l-2.75,0l-3,0.25l-3.25,0.25l-3,0l-3,0.25l-6.25,0l-3,-0.25l-3.25,0l-3.25,-0.25l-3.25,0l-3,-0.25l-3.25,-0.25l-3.25,-0.5l-3.25,-0.25l-6.5,-1l-3.5,-0.5l-6.5,-1l-3.25,-0.75l-3.5,-0.75l-6.5,-1.5l-3.5,-1l-3.25,-0.75l-3.5,-1l-3.25,-1l-3.5,-1.25l-3.25,-1l-3.25,-1.25l-3.5,-1.25l-3.25,-1.25l-3.5,-1.25l-3.25,-1.5l-3.5,-1.5l-6.5,-3l-3.5,-1.75l-3.25,-1.5l-3.25,-1.75l-3.5,-1.75l-3.25,-2l-3.25,-1.75l-9.75,-6l-3.25,-2.25l-3.25,-2l-3,-2.25l-3.25,-2.25l-3,-2.5l-3.25,-2.25l-3,-2.5l-3.25,-2.5l-3,-2.5l-3,-2.75l-3,-2.5l-3,-2.75l-11.5,-11.5l-11,-12l-2.5,-3.25l-2.75,-3.25l-5,-6.5l-2.5,-3.5l-2.5,-3.25l-2.5,-3.5l-2.25,-3.5l-2.5,-3.5l-2.25,-3.5l-2.25,-3.75l-2,-3.75l-2.25,-3.5l-2,-3.75l-2,-4l-4,-7.5l-2,-4l-5.25,-12l-1.5,-4l-1.75,-4l-1.5,-4.25l-1.5,-4l-1.5,-4.25l-6.25,-21.25l-1,-4.25l-1,-4.5l-1,-4.25l-1.5,-9l-0.75,-4.25l-1.5,-9l-1,-9l-0.25,-4.5l-0.5,-4.5l-0.25,-4.5l-0.25,-4.75l0,-4.5l-0.25,-4.5l0,-9.25l0.5,-9l0.25,-4.75l0.25,-4.5l0.5,-4.5l0.25,-4.75l0.75,-4.5l0.5,-4.5l0.75,-4.75l2.25,-13.5l1,-4.75l1,-4.5l1.25,-4.5l1,-4.5l2.5,-9l1.5,-4.25l1.25,-4.5l1.5,-4.5l1.5,-4.25l1.75,-4.5l1.75,-4.25l1.75,-4.5l3.5,-8.5l4,-8.5l2.25,-4.25l2,-4l2.25,-4.25l4.5,-8l2.5,-4l2.25,-4l2.5,-4l2.75,-4l2.5,-3.75l2.75,-4l8.25,-11.25l3,-3.5l3,-3.75l9,-10.5l3.25,-3.5l3.25,-3.25l3.25,-3.5l6.5,-6.5l3.5,-3l3.25,-3.25l7,-6l3.75,-3l3.5,-3l3.75,-2.75l3.5,-2.75l7.5,-5.5l3.75,-2.5l4,-2.5l3.75,-2.5l4,-2.5l3.75,-2.5l12,-6.75l4,-2l4.25,-2l8,-4l4.25,-2l4,-1.75l4.25,-1.75l4.25,-1.5l4.25,-1.75l12.75,-4.5l17,-5l4.25,-1l4.5,-1l4.25,-1l4.25,-0.75l4.5,-1l4.25,-0.75l4.25,-0.5l4.5,-0.75l12.75,-1.5l4.5,-0.25l4.25,-0.5l4.25,0l4.5,-0.25l4.25,-0.25l8.5,0l4.25,0.25l4.25,0l12.75,0.75l4,0.5l8.5,1l4,0.5l4.25,0.75l4,0.5l4,0.75l4,1l4,0.75l4,1l4,0.75l4,1.25l4,1l3.75,1l3.75,1.25l4,1.25l7.5,2.5l3.75,1.5l3.5,1.5l3.75,1.5l3.5,1.5l3.75,1.5l3.5,1.75l3.5,1.5l3.5,1.75l3.25,1.75l3.5,1.75l3.25,1.75l3.5,2l3.25,2l3.25,1.75l3,2l3.25,2l3,2.25l6,4l6,4.5l2.75,2.25l3,2.25l8.25,6.75l2.5,2.5l2.75,2.25l7.5,7.5l2.25,2.5l2.5,2.5l6.75,7.5l2,2.5l2.25,2.75l4,5l2,2.75l2,2.5l1.75,2.75l2,2.75l1.75,2.5l3.5,5.5l1.5,2.5l1.75,2.75l4.5,8.25l1.25,2.5l1.5,2.75l2.5,5.5l1.25,2.5l1.25,2.75l1,2.75l1.25,2.75l1,2.5l2,5.5l0.75,2.5l1,2.75l0.75,2.75l0.75,2.5l1,2.75l0.5,2.5l0.75,2.5l0.75,2.75l1,5l0.75,2.5l0.5,2.75l0.25,2.5l0.5,2.5l0.5,2.25l0.5,5l0.5,2.5l0.25,2.25l0.25,2.5l0,2.25l0.25,2.5l0.25,2.25l0,4.5l0.25,2.25l0,6.75l-0.25,2.25l0,4.25l-0.25,2l0,2l-0.25,2.25l0,2l-0.25,2l-0.25,1.75l-0.75,6l-0.5,3.5l-0.25,2l-0.5,1.75l-0.5,3.5l-0.5,1.75l-0.25,1.75l-0.25,1.5l-0.5,1.75l-0.25,1.5l-0.5,1.75l-0.25,1.5l-1,3l-0.25,1.5l-1,3l-0.25,1.25l-1,3l-0.25,1.25l-0.5,1.25l-0.5,1.5l-0.25,1.25l-0.5,1.25l-0.25,1.25l-0.5,1.25l-0.5,1l-0.25,1.25l-0.5,1.25l-0.25,1l-0.5,1.25l-0.25,1l-0.5,1.25l-0.5,2l-0.5,1l-0.5,2l-0.5,1l-1.25,5l-0.25,0.75l-0.25,1l-0.25,0.75l-0.25,1l0,1l-0.25,0.75l-0.25,1l0,0.75l-0.25,0.75l0,1l-0.25,0.75l0,1.75l-0.25,0.75l0,2.5" style="fill:none;stroke:#fff;stroke-width:22.5px"/></g></g></g></g></g></g></g><g id="badge"><g id="badge-background"><ellipse cx="700" cy="300" rx="200" ry="200"/></g><g id="badge-text"><text x="617.948" y="394.086" style="font-family:'FiraCodeNFM-Reg','FiraCode Nerd Font Mono',monospace;font-size:266.667px;fill:#fff">8</text></g></g></g></svg>