<svg xmlns="http://www.w3.org/2000/svg" xmlns:xlink="http://www.w3.org/1999/xlink" width="100%" height="100%" version="1.1" viewBox="0 0 1024 1024" xml:space="preserve" style="fill-rule:evenodd;clip-rule:evenodd"><g id="foreground"><g><g><g><clipPath id="_clip1"><rect width="500" height="510.204" x="262" y="256.898"/></clipPath><g clip-path="url(#_clip1)"><g id="Spiro"><g id="Page-1"><g id="Spiro1"><path id="spiro" d="M639.551,512l0,2.211l0.17,0.68l0,1.021l0.17,0.68l0,0.51l0.17,0.51l0.17,0.681l0,0.51l0.17,0.68l0.171,0.51l0.17,0.68l-0,0.681l0.17,0.51l0.34,1.36l0.17,0.511l0.34,0.68l0.68,2.721l0.34,0.68l0.17,0.851l0.171,0.68l0.34,0.68l0.17,0.68l0.34,0.851l0.17,0.68l0.34,0.85l0.17,0.851l0.34,0.85l0.34,0.68l0.171,0.851l0.68,1.7l0.17,1.021l0.34,0.85l0.17,0.851l0.34,1.02l0.34,0.85l0.17,1.021l0.341,1.02l0.34,0.85l0.17,1.021l0.68,2.041l0.17,1.19l0.34,1.021l0.17,1.02l0.34,1.19l0.17,1.021l0.341,1.19l0.34,2.381l0.34,1.191l0.34,2.381l0.17,1.36l0.34,1.191l0.17,1.36l0.17,1.191l0.17,1.36l0,1.361l0.511,4.081l-0,1.361l0.17,1.361l-0,2.891l0.17,1.53l-0,4.422l-0.17,1.531l-0,3.061l-0.17,1.701l-0,1.53l-0.17,1.531l-0.341,3.401l-0.17,1.531l-0.34,3.401l-0.34,1.701l-0.34,1.53l-0.17,1.701l-0.34,1.871l-0.681,3.401l-0.51,1.701l-0.34,1.701l-0.51,1.87l-0.51,1.701l-0.51,1.871l-0.511,1.701l-0.51,1.87l-0.68,1.701l-0.51,1.871l-0.681,1.87l-0.68,1.701l-1.36,3.742l-0.851,1.7l-0.68,1.871l-1.701,3.742l-0.85,1.7l-1.02,1.871l-0.851,1.871l-2.041,3.741l-1.02,1.701l-1.02,1.871l-1.191,1.87l-1.02,1.871l-1.191,1.701l-2.381,3.741l-1.36,1.701l-1.191,1.871l-1.36,1.7l-1.361,1.871l-1.36,1.701l-1.531,1.871l-1.361,1.7l-4.591,5.102l-1.531,1.871l-1.701,1.531l-1.53,1.7l-3.402,3.402l-1.87,1.53l-1.701,1.701l-1.871,1.531l-1.871,1.7l-5.612,4.592l-2.041,1.531l-2.041,1.36l-1.87,1.531l-2.211,1.361l-2.041,1.53l-2.041,1.361l-6.632,4.081l-2.211,1.191l-2.211,1.36l-2.381,1.191l-2.211,1.19l-4.762,2.381l-2.381,1.021l-2.381,1.19l-2.381,1.021l-5.102,2.04l-2.381,0.851l-2.551,1.02l-2.551,0.85l-2.721,0.851l-2.551,0.85l-2.551,0.68l-2.721,0.851l-2.721,0.68l-2.551,0.68l-2.721,0.681l-2.721,0.51l-2.722,0.68l-2.721,0.51l-2.891,0.51l-2.721,0.341l-2.891,0.51l-2.721,0.34l-2.891,0.34l-2.721,0.34l-11.565,0.68l-2.891,0l-2.891,0.171l-2.891,-0l-2.892,-0.171l-2.891,0l-3.061,-0.17l-5.782,-0.34l-3.062,-0.34l-5.782,-0.68l-3.061,-0.34l-5.782,-1.021l-3.062,-0.51l-2.891,-0.51l-5.782,-1.361l-3.061,-0.68l-2.891,-0.68l-8.674,-2.551l-2.891,-1.021l-2.891,-0.85l-2.891,-1.02l-2.892,-1.191l-2.891,-1.02l-2.891,-1.191l-2.721,-1.19l-2.891,-1.191l-2.721,-1.36l-2.891,-1.361l-5.443,-2.721l-10.884,-6.122l-2.721,-1.701l-2.551,-1.701l-2.721,-1.7l-2.551,-1.701l-2.551,-1.871l-2.551,-1.7l-2.551,-1.871l-2.381,-2.041l-2.551,-1.871l-9.524,-8.163l-2.381,-2.211l-2.211,-2.211l-2.381,-2.211l-4.422,-4.421l-2.04,-2.381l-2.211,-2.381l-6.123,-7.143l-2.041,-2.551l-1.87,-2.381l-2.041,-2.551l-1.871,-2.551l-1.871,-2.721l-1.7,-2.551l-1.701,-2.721l-1.871,-2.552l-1.7,-2.721l-1.531,-2.721l-1.701,-2.721l-1.53,-2.891l-1.531,-2.721l-1.361,-2.891l-1.53,-2.721l-4.082,-8.674l-2.381,-5.782l-1.19,-3.061l-1.191,-2.891l-1.02,-3.062l-1.02,-2.891l-2.041,-6.122l-2.551,-9.184l-0.681,-3.061l-0.85,-3.061l-0.51,-3.062l-1.361,-6.122l-0.51,-3.061l-0.51,-3.232l-0.68,-6.122l-0.341,-3.231l-0.68,-6.123l-0.17,-3.231l-0.17,-3.061l0,-3.062l-0.17,-3.231l0,-6.122l0.17,-3.232l0,-3.061l0.17,-3.061l0.34,-3.061l0.17,-3.062l1.021,-9.183l1.53,-9.184l0.511,-2.891l0.68,-3.061l0.68,-2.891l0.68,-3.062l0.681,-2.891l3.401,-11.564l1.02,-2.892l0.851,-2.891l1.02,-2.721l1.191,-2.721l1.02,-2.891l3.572,-8.163l1.19,-2.551l1.361,-2.722l1.36,-2.551l1.361,-2.721l1.36,-2.551l1.531,-2.551l1.36,-2.381l1.531,-2.551l1.531,-2.381l1.53,-2.551l1.531,-2.381l1.7,-2.381l1.701,-2.21l1.701,-2.381l5.102,-6.633l3.741,-4.422l1.701,-2.041l1.871,-2.04l2.041,-2.041l3.741,-4.082l2.041,-1.871l1.871,-1.87l6.122,-5.613l4.082,-3.401l2.211,-1.701l2.04,-1.7l2.211,-1.531l2.041,-1.531l6.633,-4.591l2.041,-1.361l4.421,-2.721l2.381,-1.361l2.211,-1.19l2.211,-1.361l2.211,-1.19l2.211,-1.021l2.381,-1.19l2.211,-1.02l2.211,-1.191l2.381,-1.02l2.21,-0.851l2.381,-1.02l2.211,-0.85l2.381,-0.851l2.211,-0.85l2.381,-0.85l4.422,-1.361l2.381,-0.68l2.211,-0.681l2.381,-0.68l4.421,-1.02l2.381,-0.51l4.422,-1.021l2.381,-0.34l8.844,-1.36l8.843,-0.681l2.041,-0.17l2.211,0l2.211,-0.17l4.252,0l2.04,0.17l4.082,0l10.204,0.851l1.871,0.34l2.041,0.17l1.87,0.34l2.041,0.34l5.612,1.02l1.871,0.511l1.701,0.34l1.871,0.51l1.7,0.34l1.871,0.51l5.102,1.531l1.701,0.68l1.7,0.51l1.531,0.511l1.701,0.68l1.53,0.51l9.184,4.082l2.721,1.36l1.531,0.681l1.36,0.68l1.361,0.85l1.19,0.68l1.361,0.681l1.36,0.85l1.191,0.68l1.19,0.851l1.361,0.68l1.19,0.85l1.021,0.851l1.19,0.68l1.191,0.85l1.02,0.68l1.191,0.851l1.02,0.85l1.02,0.68l2.041,1.701l1.021,0.68l1.02,0.851l0.85,0.85l1.021,0.68l0.85,0.851l1.021,0.85l0.85,0.68l1.701,1.701l0.85,0.68l0.68,0.851l0.851,0.68l4.421,4.422l0.681,0.85l2.04,2.041l0.511,0.68l0.68,0.68l0.51,0.681l0.68,0.68l0.511,0.68l0.68,0.51l1.02,1.361l1.191,1.19l0.51,0.681l1.02,1.02l0.511,0.68l1.02,1.021l0.34,0.51l2.041,2.041l0.34,0.51l0.51,0.51l0.51,0.34l1.361,1.361l0.51,0.34l0.34,0.51l1.021,0.68l0.34,0.341l1.02,0.68l0.34,0.34l1.531,1.02l0.34,0.341l0.51,0.17l1.021,0.68l0.51,0.17l0.51,0.34l0.51,0.17l0.511,0.34l1.02,0.34l0.51,0.341l0.51,0.17l0.681,0.17l1.02,0.34l0.68,0.34l0.511,0.17l0.68,0.17l0.51,0.17l2.041,0.51l0.51,0.17l2.041,0.511l0.68,-0l0.851,0.17l1.36,0.34l0.85,0.17l0.681,0.17l0.85,0.17l0.68,0.17l6.803,1.361l1.02,0.17l0.851,0.34l1.02,0.17l0.851,0.17l1.02,0.34l0.85,0.17l1.021,0.17l2.041,0.681l1.02,0.17l1.02,0.34l1.191,0.34l1.02,0.17l1.021,0.34l1.19,0.34l1.021,0.34l1.19,0.511l1.02,0.34l1.191,0.34l1.19,0.51l1.191,0.34l1.02,0.51l1.191,0.341l2.381,1.02l1.36,0.51l2.381,1.021l1.191,0.68l1.36,0.51l1.191,0.68l1.19,0.511l1.361,0.68l1.19,0.68l2.721,1.361l1.191,0.68l1.36,0.85l1.191,0.681l4.081,2.551l1.191,0.85l1.36,0.85l1.361,1.021l1.361,0.85l1.36,1.02l1.191,1.021l5.442,4.081l1.19,1.191l4.082,3.571l1.19,1.191l1.361,1.19l1.36,1.361l1.191,1.36l1.36,1.191l1.191,1.36l1.36,1.531l1.191,1.361l1.36,1.36l5.953,7.653l1.19,1.701l1.191,1.53l3.571,5.103l1.021,1.7l1.19,1.871l1.021,1.701l5.102,9.353l1.02,2.041l0.85,2.041l1.021,1.871l1.7,4.081l0.851,2.211l1.7,4.082l0.681,2.211l0.85,2.211l3.401,11.054l1.021,4.762l0.51,2.211l1.531,7.143l0.34,2.381l0.34,2.551l0.68,4.762l0.34,2.551l0.17,2.551l0.17,2.381l0.511,7.653l-0,10.374l-0.34,5.102l-0.171,2.721l-0.17,2.551l-0.17,2.721l-0.34,2.551l-0.34,2.721l-0.34,2.551l-0.34,2.721l-0.51,2.721l-0.511,2.551l-1.02,5.443l-0.68,2.551l-1.361,5.442l-0.68,2.551l-0.68,2.721l-0.851,2.721l-0.85,2.551l-0.85,2.721l-1.021,2.551l-1.02,2.721l-1.021,2.551l-1.02,2.721l-1.02,2.551l-1.191,2.722l-2.381,5.102l-2.721,5.102l-1.19,2.551l-1.531,2.551l-1.361,2.551l-3.061,5.102l-1.53,2.381l-1.531,2.551l-3.401,4.762l-1.701,2.551l-1.701,2.381l-1.871,2.21l-1.7,2.381l-1.871,2.381l-2.041,2.211l-1.871,2.381l-8.163,8.844l-2.211,2.211l-2.211,2.04l-2.04,2.041l-2.381,2.041l-2.211,2.041l-2.381,2.041l-2.211,2.041l-4.762,3.741l-2.551,1.871l-2.381,1.871l-2.551,1.87l-7.653,5.102l-2.721,1.701l-2.551,1.701l-10.885,6.122l-2.721,1.361l-2.891,1.36l-2.721,1.361l-2.891,1.36l-2.891,1.191l-2.891,1.36l-2.892,1.021l-2.891,1.19l-3.061,1.191l-2.891,1.02l-3.061,1.021l-2.891,1.02l-12.245,3.401l-9.184,2.041l-3.231,0.68l-6.123,1.021l-3.231,0.51l-3.061,0.34l-6.463,0.68l-3.061,0.341l-3.231,0.17l-3.062,0.17l-6.462,0.34l-9.524,-0l-3.231,-0.17l-3.062,-0.17l-6.462,-0.34l-3.061,-0.341l-3.232,-0.34l-3.061,-0.34l-3.231,-0.51l-3.061,-0.51l-3.232,-0.51l-3.061,-0.511l-3.061,-0.68l-3.231,-0.68l-6.123,-1.361l-9.184,-2.551l-2.891,-1.02l-3.061,-0.851l-2.891,-1.02l-3.061,-1.19l-2.892,-1.021l-2.891,-1.19l-3.061,-1.191l-2.721,-1.19l-2.891,-1.361l-2.891,-1.19l-2.891,-1.361l-2.722,-1.53l-2.721,-1.361l-2.891,-1.531l-2.721,-1.53l-2.551,-1.531l-2.721,-1.53l-2.721,-1.701l-10.204,-6.803l-2.551,-1.871l-4.762,-3.741l-2.551,-1.871l-2.211,-2.041l-2.381,-1.87l-2.381,-2.041l-4.422,-4.082l-2.211,-2.211l-2.211,-2.041l-2.04,-2.21l-4.252,-4.252l-2.041,-2.381l-1.871,-2.211l-2.04,-2.211l-3.742,-4.762l-1.701,-2.211l-1.87,-2.381l-1.701,-2.381l-1.701,-2.551l-3.401,-4.762l-1.531,-2.551l-1.53,-2.38l-3.062,-5.103l-5.442,-10.204l-2.381,-5.102l-1.19,-2.721l-1.191,-2.551l-1.02,-2.551l-1.191,-2.721l-0.85,-2.551l-1.02,-2.721l-1.021,-2.551l-1.7,-5.442l-0.851,-2.551l-1.36,-5.442l-0.681,-2.551l-0.68,-2.722l-0.51,-2.721l-0.68,-2.551l-1.021,-5.442l-0.34,-2.551l-0.34,-2.721l-0.51,-2.551l-0.17,-2.721l-0.34,-2.551l-0.17,-2.721l-0.341,-2.551l0,-2.721l-0.34,-5.102l0,-7.823l0.17,-2.551l0,-2.552l0.341,-5.102l0.17,-2.381l0.34,-2.551l0.17,-2.38l0.34,-2.552l0.34,-2.38l0.34,-2.551l0.51,-2.381l0.341,-2.381l1.02,-4.762l0.51,-2.211l0.68,-2.381l0.511,-2.211l0.68,-2.381l2.721,-8.844l0.85,-2.21l0.681,-2.041l0.85,-2.211l3.401,-8.163l1.021,-2.041l0.85,-1.871l1.02,-2.041l5.103,-9.354l1.19,-1.7l1.02,-1.871l2.381,-3.401l1.021,-1.701l1.19,-1.701l1.191,-1.53l1.19,-1.701l3.572,-4.592l1.36,-1.53l1.191,-1.361l1.19,-1.531l1.361,-1.36l1.19,-1.361l1.361,-1.36l1.19,-1.361l1.361,-1.36l1.36,-1.191l1.191,-1.36l2.721,-2.381l1.19,-1.191l1.361,-1.02l1.36,-1.191l2.721,-2.04l1.191,-1.191l1.361,-1.02l1.36,-0.851l1.361,-1.02l1.36,-0.85l1.191,-1.021l4.081,-2.551l1.191,-0.85l1.36,-0.851l1.361,-0.68l1.19,-0.68l1.361,-0.85l1.36,-0.681l1.191,-0.68l1.36,-0.68l1.191,-0.681l1.36,-0.51l1.191,-0.68l1.19,-0.51l1.361,-0.51l1.19,-0.681l2.381,-1.02l1.191,-0.34l2.381,-1.021l1.19,-0.34l1.191,-0.51l1.02,-0.34l1.191,-0.51l1.19,-0.34l1.021,-0.341l1.19,-0.34l2.041,-0.68l1.19,-0.34l1.021,-0.17l2.041,-0.68l1.02,-0.171l1.02,-0.34l1.021,-0.17l0.85,-0.34l2.041,-0.34l0.85,-0.34l1.021,-0.17l7.653,-1.531l0.68,-0.17l0.85,-0.17l0.681,-0.17l0.85,-0.17l2.721,-0.68l0.85,-0.17l0.511,-0.171l0.68,0l2.041,-0.51l0.51,-0.17l0.68,-0.17l0.51,-0.34l0.681,-0.17l0.51,-0.17l0.68,-0.17l1.021,-0.34l0.51,-0.34l0.68,-0.171l0.51,-0.17l0.51,-0.34l1.021,-0.34l1.02,-0.68l0.34,-0.17l1.021,-0.681l0.51,-0.17l0.51,-0.34l0.34,-0.34l1.531,-1.02l0.34,-0.34l0.51,-0.341l0.851,-0.85l0.51,-0.34l1.36,-1.361l0.511,-0.34l0.34,-0.51l1.02,-1.02l0.51,-0.34l0.34,-0.511l1.021,-1.02l0.51,-0.68l1.531,-1.531l0.51,-0.68l0.51,-0.51l0.51,-0.681l0.511,-0.51l0.51,-0.68l1.19,-1.191l0.51,-0.68l0.681,-0.68l0.51,-0.68l1.36,-1.361l0.511,-0.68l2.04,-2.041l0.681,-0.85l4.421,-4.422l0.851,-0.68l0.68,-0.851l0.85,-0.68l1.701,-1.701l0.85,-0.68l1.021,-0.85l0.85,-0.681l1.021,-0.85l0.85,-0.85l1.02,-0.681l2.041,-1.7l1.021,-0.681l2.04,-1.7l1.191,-0.681l1.02,-0.85l1.191,-0.85l1.19,-0.68l2.381,-1.701l1.191,-0.68l1.19,-0.851l1.361,-0.68l1.19,-0.68l1.361,-0.851l1.36,-0.68l1.361,-0.85l2.721,-1.361l1.531,-0.68l1.36,-0.68l3.061,-1.361l1.361,-0.68l1.53,-0.68l1.701,-0.681l1.531,-0.51l1.53,-0.68l1.701,-0.51l1.531,-0.681l8.503,-2.551l1.871,-0.51l1.7,-0.51l1.871,-0.34l1.871,-0.51l1.871,-0.341l1.7,-0.34l2.041,-0.51l1.871,-0.34l1.871,-0.17l1.87,-0.34l2.041,-0.34l2.041,-0.17l1.871,-0.171l8.163,-0.68l2.041,0l2.211,-0.17l4.081,0l2.211,0.17l4.252,0l8.844,0.68l2.211,0.341l2.21,0.17l6.633,1.02l2.211,0.51l2.381,0.34l4.422,1.021l2.381,0.68l2.211,0.51l2.21,0.681l2.381,0.51l2.211,0.68l2.381,0.85l2.211,0.681l2.381,0.85l2.211,0.85l2.381,0.851l2.211,0.85l2.381,1.02l4.421,2.041l2.381,1.021l2.211,1.02l2.211,1.191l2.381,1.19l4.422,2.381l2.211,1.361l2.211,1.19l2.211,1.361l2.21,1.53l2.211,1.361l4.422,3.061l2.041,1.531l2.211,1.53l2.041,1.531l2.211,1.7l4.081,3.402l2.041,1.871l2.041,1.7l6.122,5.612l1.871,2.041l3.912,3.912l3.741,4.082l1.871,2.21l1.701,2.041l1.87,2.211l3.402,4.422l1.7,2.381l1.701,2.211l1.701,2.381l1.53,2.381l1.701,2.381l1.531,2.551l1.53,2.381l1.531,2.551l1.36,2.381l1.531,2.551l1.361,2.721l1.36,2.551l1.191,2.551l1.36,2.721l1.191,2.721l1.36,2.551l1.021,2.721l1.19,2.891l1.19,2.721l1.021,2.721l2.041,5.783l0.85,2.721l2.551,8.673l0.85,3.061l1.361,5.783l0.68,3.061l0.68,2.891l1.531,9.184l0.34,2.891l1.021,9.184l0.34,3.231l0.34,6.122l-0,3.062l0.17,3.061l-0,6.292l-0.17,3.062l-0,3.231l-0.17,3.061l-0.34,3.061l-0.17,3.232l-0.681,6.122l-0.34,3.231l-1.02,6.123l-0.51,3.231l-0.681,3.061l-0.51,3.062l-0.68,3.061l-0.85,3.061l-0.681,3.061l-2.551,9.184l-1.02,3.061l-1.021,2.891l-1.02,3.062l-1.19,2.891l-1.021,3.061l-2.381,5.782l-1.36,3.062l-1.361,2.891l-1.36,2.721l-2.722,5.782l-1.53,2.721l-1.531,2.891l-1.53,2.721l-1.701,2.722l-1.531,2.721l-1.7,2.721l-1.871,2.721l-1.701,2.551l-1.871,2.721l-5.612,7.653l-1.871,2.381l-2.04,2.551l-4.082,4.762l-2.211,2.381l-2.041,2.381l-2.211,2.381l-6.632,6.632l-2.381,2.211l-2.381,2.041l-2.381,2.211l-4.762,4.082l-2.381,1.87l-2.551,2.041l-2.381,1.871l-5.102,3.741l-2.551,1.701l-2.721,1.701l-2.551,1.7l-2.721,1.701l-2.551,1.701l-8.164,4.592l-2.721,1.36l-2.721,1.531l-2.891,1.36l-2.721,1.191l-2.721,1.36l-5.782,2.381l-2.721,1.191l-2.892,1.19l-5.782,2.041l-2.891,0.85l-2.891,1.021l-5.783,1.701l-3.061,0.85l-8.673,2.041l-3.061,0.68l-5.783,1.02l-3.061,0.511l-2.891,0.34l-2.891,0.51l-3.062,0.34l-2.891,0.34l-2.891,0.17l-3.061,0.17l-5.782,0.34l-2.892,0l-2.891,0.171l-2.891,-0l-3.061,-0.171l-2.891,0l-2.721,-0.17l-5.783,-0.34l-2.891,-0.34l-2.891,-0.17l-2.721,-0.34l-2.891,-0.51l-2.721,-0.34l-2.892,-0.511l-8.163,-1.53l-8.163,-2.041l-2.551,-0.68l-2.721,-0.681l-2.551,-0.85l-2.721,-0.85l-5.102,-1.701l-2.551,-1.02l-2.381,-1.021l-2.551,-0.85l-2.381,-1.021l-2.551,-1.19l-2.381,-1.02l-7.143,-3.572l-2.211,-1.19l-2.381,-1.191l-2.211,-1.19l-6.633,-4.082l-2.04,-1.36l-2.211,-1.361l-2.041,-1.361l-2.041,-1.53l-2.041,-1.361l-2.04,-1.53l-3.742,-3.062l-2.041,-1.53l-1.871,-1.531l-1.7,-1.7l-1.871,-1.531l-1.701,-1.531l-1.87,-1.7l-3.402,-3.402l-1.53,-1.7l-1.701,-1.701l-6.123,-6.803l-1.36,-1.7l-1.531,-1.871l-1.36,-1.701l-1.361,-1.871l-1.19,-1.7l-1.361,-1.871l-1.19,-1.701l-3.572,-5.612l-1.19,-1.701l-2.041,-3.741l-1.19,-1.871l-0.851,-1.701l-2.041,-3.741l-1.7,-3.742l-0.851,-1.7l-0.85,-1.871l-0.68,-1.871l-0.851,-1.871l-0.68,-1.7l-1.36,-3.742l-0.681,-1.7l-0.51,-1.871l-0.68,-1.701l-0.51,-1.871l-0.511,-1.7l-0.51,-1.871l-0.51,-1.701l-0.34,-1.87l-0.51,-1.701l-1.021,-5.102l-0.34,-1.871l-0.34,-1.701l-0.17,-1.53l-0.34,-1.701l-0.34,-3.401l-0.17,-1.531l-0.171,-1.701l-0.17,-1.53l-0.17,-1.701l0,-1.531l-0.17,-1.53l0,-1.701l-0.17,-1.53l0,-5.953l0.17,-1.36l0,-2.892l0.17,-1.53l0.17,-1.361l0,-1.36l0.511,-4.082l0.17,-1.19l0.34,-2.721l0.51,-3.572l0.34,-1.19l0.34,-2.381l0.34,-1.191l0.171,-1.19l0.34,-1.021l0.17,-1.19l0.34,-1.021l0.17,-1.19l0.34,-1.02l0.17,-1.021l0.68,-2.041l0.17,-1.02l0.341,-0.85l0.34,-1.021l0.17,-0.85l0.34,-1.021l0.34,-0.85l0.17,-0.85l0.34,-1.021l0.17,-0.85l0.681,-1.701l0.17,-0.68l0.34,-0.85l0.17,-0.851l0.34,-0.68l0.17,-0.85l0.34,-0.681l0.17,-0.85l0.34,-0.68l0.171,-0.68l0.34,-0.851l0.51,-2.041l0.34,-0.68l0.17,-0.51l0.68,-2.721l0.17,-0.51l0.17,-0.681l0,-0.51l0.171,-0.68l0.17,-0.51l0.17,-0.681l-0,-0.51l0.17,-0.68l-0,-0.51l0.17,-0.51l-0,-1.191l0.17,-0.51l-0,-4.082l-0.17,-0.51l-0,-1.19l-0.17,-0.511l-0,-1.19l-0.17,-0.51l-0.17,-0.681l-0,-0.51l-0.17,-0.68l-0.171,-0.51l-0.17,-0.681l-0.17,-0.51l-0.34,-1.36l-0.17,-0.51l-0.85,-3.402l-0.34,-0.68l-0.34,-1.361l-0.341,-0.85l-0.17,-0.68l-0.34,-0.681l-0.17,-0.85l-0.34,-0.68l-0.17,-0.851l-0.34,-0.85l-0.17,-0.85l-0.34,-0.68l-0.341,-0.851l-0.17,-0.85l-0.34,-0.85l-0.34,-1.021l-0.17,-0.85l-0.34,-0.851l-0.17,-1.02l-0.34,-0.85l-0.34,-1.021l-0.171,-1.02l-0.68,-2.041l-0.17,-1.02l-0.34,-1.021l-0.17,-1.02l-0.34,-1.021l-0.34,-1.19l-0.17,-1.02l-0.341,-1.191l-0.17,-1.19l-0.17,-1.021l-0.34,-1.19l-0.17,-1.191l-0.17,-1.36l-0.17,-1.191l-0.34,-1.19l-0.17,-1.361l-0.17,-1.19l-0.17,-1.361l-0.17,-1.19l-0.171,-1.361l0,-1.36l-0.34,-2.722l0,-1.53l-0.17,-1.361l0,-2.891l-0.17,-1.53l0,-4.422l0.17,-1.531l0,-3.061l0.17,-1.701l0,-1.53l0.17,-1.531l0.17,-1.701l0.171,-1.53l0.34,-3.402l0.34,-1.7l0.17,-1.701l2.041,-10.204l0.51,-1.871l0.51,-1.701l0.34,-1.7l0.51,-1.871l0.511,-1.701l0.68,-1.87l0.51,-1.701l1.361,-3.742l0.68,-1.7l1.361,-3.742l0.85,-1.871l0.68,-1.7l2.551,-5.612l1.021,-1.701l0.85,-1.871l3.061,-5.612l1.021,-1.701l2.38,-3.741l1.021,-1.871l1.19,-1.701l1.361,-1.87l1.19,-1.701l2.721,-3.742l2.722,-3.401l1.36,-1.871l4.592,-5.102l1.531,-1.871l1.53,-1.7l4.932,-4.932l1.871,-1.701l1.701,-1.531l1.7,-1.7l1.871,-1.531l1.871,-1.701l3.741,-3.061l2.041,-1.53l1.871,-1.361l4.081,-3.061l4.082,-2.721l2.211,-1.531l2.211,-1.36l2.041,-1.191l4.421,-2.721l2.381,-1.19l2.211,-1.191l7.143,-3.571l2.381,-1.021l2.381,-1.19l2.381,-1.021l5.102,-2.04l2.381,-0.851l2.551,-1.02l2.551,-0.851l2.721,-0.85l2.551,-0.85l2.551,-0.68l2.721,-0.851l5.443,-1.36l2.551,-0.681l2.721,-0.51l2.891,-0.51l8.163,-1.531l5.782,-0.68l2.721,-0.34l2.892,-0.34l2.891,-0.17l2.891,-0.34l2.721,-0l5.782,-0.341l5.953,0l2.891,0.171l2.891,-0l5.782,0.34l3.062,0.34l2.891,0.17l2.891,0.34l3.061,0.34l2.891,0.51l2.891,0.34l3.062,0.511l2.891,0.51l2.891,0.68l3.061,0.51l2.891,0.681l2.892,0.85l2.891,0.68l3.061,0.851l5.782,1.7l11.565,4.082l2.721,1.19l5.782,2.381l2.721,1.191l2.892,1.36l5.442,2.721l2.891,1.361l5.442,3.061l2.551,1.531l2.721,1.53l2.721,1.701l2.551,1.701l2.721,1.7l2.551,1.701l7.653,5.612l2.381,1.871l2.551,1.871l7.143,6.122l2.381,2.211l2.381,2.041l6.633,6.633l4.422,4.762l2.04,2.211l2.211,2.38l2.041,2.552l2.041,2.38l1.871,2.551l2.041,2.381l3.741,5.102l1.871,2.722l1.7,2.551l1.871,2.721l1.701,2.551l1.701,2.721l1.53,2.721l1.531,2.891l1.7,2.721l1.531,2.721l1.361,2.891l1.53,2.892l1.361,2.721l1.36,2.891l1.191,2.891l1.36,3.061l2.381,5.783l1.021,3.061l1.02,2.891l2.041,6.122l1.02,2.892l2.551,9.183l2.041,9.184l0.68,3.231l1.531,9.184l0.51,3.231l0.681,6.123l0.17,3.231l0.34,3.061l0.17,3.061l0.17,3.232l0.17,3.061l-0,9.354l-0.17,3.061l-0.17,3.231l-0.34,6.123l-0.34,3.061l-0.17,3.061l-0.341,3.061l-0.51,3.061l-0.34,3.062l-0.51,2.891l-0.51,3.061l-0.681,3.061l-0.68,2.891l-0.51,3.062l-0.85,2.891l-0.681,2.891l-0.85,3.061l-2.551,8.674l-1.021,2.721l-1.02,2.891l-1.02,2.721l-1.021,2.891l-1.19,2.721l-1.021,2.721l-1.19,2.722l-1.361,2.721l-1.19,2.721l-1.361,2.551l-1.19,2.551l-1.531,2.721l-2.721,5.102l-1.53,2.381l-1.531,2.551l-1.531,2.381l-1.53,2.551l-1.531,2.381l-1.701,2.211l-3.401,4.762l-5.102,6.632l-1.871,2.211l-1.87,2.041l-1.871,2.211l-5.612,6.122l-2.041,1.871l-3.912,3.912l-2.041,1.7l-4.081,3.742l-6.123,5.102l-2.211,1.53l-2.04,1.701l-4.422,3.061l-2.041,1.531l-2.211,1.361l-2.211,1.53l-4.422,2.721l-2.211,1.191l-2.21,1.36l-2.381,1.191l-4.422,2.381l-2.211,1.02l-2.381,1.191l-2.211,1.02l-2.381,1.02l-2.211,0.851l-2.211,1.02l-2.381,0.85l-2.21,0.851l-2.381,0.85l-2.211,0.85l-2.381,0.681l-2.211,0.68l-2.381,0.68l-2.211,0.681l-2.211,0.51l-2.381,0.68l-2.211,0.51l-2.381,0.51l-2.211,0.511l-4.421,0.68l-2.381,0.51l-2.211,0.34l-2.211,0.17l-2.211,0.34l-4.422,0.341l-2.04,0.17l-4.422,0.34l-2.211,-0l-2.041,0.17l-4.252,-0l-2.04,-0.17l-2.211,-0l-2.041,-0.17l-2.041,-0l-4.082,-0.34l-1.87,-0.17l-2.041,-0.341l-2.041,-0.17l-1.871,-0.34l-2.041,-0.17l-5.612,-1.02l-1.871,-0.51l-1.87,-0.341l-1.701,-0.51l-1.871,-0.34l-1.7,-0.51l-1.871,-0.51l-6.803,-2.041l-1.701,-0.68l-1.53,-0.511l-1.701,-0.68l-1.531,-0.51l-3.061,-1.361l-1.53,-0.51l-3.062,-1.36l-1.36,-0.681l-1.531,-0.85l-4.081,-2.041l-1.361,-0.85l-2.721,-1.361l-1.19,-0.85l-1.361,-0.68l-1.191,-0.851l-1.19,-0.68l-1.19,-0.85l-1.191,-0.681l-1.19,-0.85l-1.021,-0.85l-1.19,-0.681l-2.041,-1.7l-1.191,-0.68l-2.04,-1.701l-0.851,-0.68l-2.041,-1.701l-0.85,-0.68l-0.85,-0.851l-1.021,-0.85l-0.85,-0.68l-0.85,-0.851l-0.851,-0.68l-0.85,-0.85l-0.68,-0.851l-0.851,-0.68l-2.211,-2.211l-0.68,-0.85l-0.85,-0.68l-1.361,-1.361l-0.68,-0.85l-0.51,-0.681l-2.041,-2.04l-0.51,-0.681l-1.191,-1.19l-0.51,-0.68l-0.68,-0.681l-0.51,-0.68l-0.511,-0.51l-0.51,-0.68l-0.51,-0.511l-0.51,-0.68l-1.021,-1.02l-0.51,-0.681l-2.041,-2.04l-0.34,-0.511l-0.51,-0.51l-0.51,-0.34l-0.51,-0.51l-0.34,-0.51l-0.511,-0.341l-1.36,-1.36l-0.51,-0.34l-0.851,-0.851l-1.02,-0.68l-0.34,-0.34l-1.021,-0.68l-0.34,-0.34l-0.51,-0.17l-1.02,-0.681l-0.511,-0.17l-1.02,-0.68l-0.51,-0.17l-0.511,-0.34l-1.02,-0.34l-0.51,-0.341l-1.531,-0.51l-0.68,-0.34l-0.51,-0.17l-0.68,-0.17l-0.511,-0.17l-0.68,-0.17l-0.51,-0.17l-1.361,-0.34l-0.51,-0.17l-3.401,-0.851l-0.851,-0.17l-0.68,0l-0.68,-0.17l-0.851,-0.17l-0.68,-0.17l-0.85,-0.17l-0.68,-0.17l-5.953,-1.191l-0.85,-0.34l-1.021,-0.17l-0.85,-0.17l-1.02,-0.17l-0.851,-0.34l-2.04,-0.34l-0.851,-0.34l-1.02,-0.17l-2.041,-0.681l-1.19,-0.17l-3.062,-1.02l-1.19,-0.34l-1.021,-0.34l-2.381,-0.681l-1.02,-0.51l-1.19,-0.34l-1.191,-0.51l-1.19,-0.34l-7.143,-3.062l-1.361,-0.51l-1.19,-0.68l-1.191,-0.51l-1.36,-0.681l-1.191,-0.68l-1.36,-0.68l-1.191,-0.68l-2.721,-1.361l-1.19,-0.85l-1.361,-0.681l-1.36,-0.85l-1.191,-0.85l-4.082,-2.551l-1.36,-1.021l-1.191,-0.85l-5.442,-4.082l-1.19,-1.02l-1.361,-1.191l-1.36,-1.02l-1.361,-1.19l-1.19,-1.191l-2.721,-2.381l-1.191,-1.36l-1.36,-1.191l-1.361,-1.36l-1.191,-1.361l-1.36,-1.361l-1.191,-1.36l-1.36,-1.531l-1.191,-1.36l-1.19,-1.531l-1.361,-1.53l-3.571,-4.592l-1.19,-1.701l-1.191,-1.531l-1.19,-1.7l-1.021,-1.701l-1.19,-1.701l-1.021,-1.7l-1.19,-1.871l-1.021,-1.871l-1.02,-1.701l-1.02,-1.87l-1.191,-1.871l-0.85,-1.871l-1.021,-2.041l-1.02,-1.87l-0.85,-2.041l-1.021,-2.041l-3.401,-8.163l-0.851,-2.211l-0.68,-2.211l-0.85,-2.041l-2.041,-6.632l-0.68,-2.381l-0.51,-2.211l-0.681,-2.381l-0.51,-2.211l-1.531,-7.143l-0.34,-2.381l-0.51,-2.381l-0.34,-2.551l-0.34,-2.381l-0.17,-2.381l-0.34,-2.551l-0.17,-2.551l-0.17,-2.381l-0.511,-7.653l0,-10.374l0.34,-5.102l0.171,-2.721l0.17,-2.551l0.34,-2.721l0.17,-2.551l0.68,-5.443l0.51,-2.551l0.51,-2.721l0.341,-2.551l0.68,-2.721l0.51,-2.721l0.68,-2.551l0.511,-2.721l0.68,-2.721l0.85,-2.551l0.68,-2.721l0.851,-2.721l0.85,-2.551l1.021,-2.721l0.85,-2.721l1.02,-2.551l1.021,-2.722l1.02,-2.551l1.191,-2.551l1.19,-2.721l3.571,-7.653l4.082,-7.653l4.592,-7.653l1.531,-2.381l1.53,-2.551l6.803,-9.524l5.612,-7.143l1.871,-2.21l2.041,-2.381l1.87,-2.211l4.082,-4.422l2.211,-2.041l2.041,-2.211l2.211,-2.041l2.211,-2.21l2.21,-2.041l2.381,-2.041l2.211,-1.871l2.381,-2.041l2.381,-1.87l2.381,-2.041l2.551,-1.701l2.381,-1.871l2.551,-1.87l7.653,-5.102l2.721,-1.701l2.551,-1.701l8.164,-4.592l2.721,-1.36l2.891,-1.531l2.721,-1.36l2.891,-1.361l2.891,-1.19l2.721,-1.361l2.892,-1.19l3.061,-1.191l2.891,-1.19l2.891,-1.021l3.061,-1.02l2.891,-1.021l3.062,-1.02l12.245,-3.401l9.183,-2.041l3.062,-0.51l3.231,-0.681l3.061,-0.51l3.231,-0.34l3.062,-0.51l3.231,-0.34l3.061,-0.34l3.231,-0.171l3.232,-0.34l3.061,-0.17l3.231,0l3.232,-0.17l9.523,0l3.062,0.17l6.462,0.34l3.061,0.341l3.232,0.17l3.231,0.34l3.061,0.51l3.231,0.34l6.123,1.02l3.231,0.681l3.061,0.51l3.062,0.68l3.061,0.851l3.061,0.68l9.184,2.551l6.122,2.041l5.783,2.04l3.061,1.191l2.891,1.02l2.891,1.191l2.891,1.36l2.891,1.191l2.722,1.36l2.891,1.361l2.721,1.361l2.891,1.53l8.163,4.592l2.551,1.531l2.721,1.7l7.653,5.102l2.551,1.871l2.551,1.701l4.762,3.741l2.381,2.041l2.381,1.871l2.381,2.041l2.211,2.04l2.381,2.041l4.422,4.082l2.041,2.211l2.211,2.041l6.122,6.632l1.871,2.381l2.041,2.211l1.87,2.381l1.871,2.211l1.871,2.381l5.102,7.143l1.701,2.551l1.7,2.381l1.531,2.551l1.53,2.381l1.531,2.551l1.361,2.551l1.53,2.551l2.721,5.102l1.191,2.551l1.36,2.551l1.191,2.551l1.19,2.721l1.021,2.551l1.19,2.551l1.021,2.721l1.02,2.551l0.85,2.721l1.021,2.721l0.85,2.551l0.85,2.721l0.681,2.551l0.85,2.722l0.68,2.721l0.681,2.551l0.68,2.721l0.51,2.721l0.51,2.551l1.021,5.442l0.51,2.551l0.68,5.442l0.34,2.551l0.17,2.721l0.34,2.551l0.171,2.721l0.17,2.551l-0,2.552l0.17,2.721l-0,7.653l-0.17,2.551l-0,2.551l-0.341,5.102l-0.34,2.381l-0.17,2.551l-0.34,2.381l-0.34,2.551l-0.68,4.762l-0.34,2.551l-0.511,2.381l-0.51,2.21l-1.53,7.143l-1.361,4.422l-0.51,2.381l-0.68,2.211l-0.851,2.211l-0.68,2.041l-0.68,2.211l-0.851,2.21l-1.7,4.082l-0.851,2.211l-0.85,2.041l-1.02,1.871l-0.851,2.04l-1.02,2.041l-0.851,1.871l-1.02,1.871l-1.02,2.04l-1.021,1.871l-1.02,1.701l-1.191,1.871l-1.02,1.7l-1.191,1.871l-1.02,1.701l-2.381,3.401l-1.02,1.701l-1.191,1.53l-1.19,1.701l-1.361,1.531l-3.571,4.592l-1.191,1.36l-1.36,1.531l-1.191,1.36l-1.36,1.361l-1.191,1.36l-1.36,1.361l-1.361,1.19l-1.19,1.361l-2.721,2.381l-1.191,1.19l-2.721,2.381l-1.361,1.021l-1.19,1.19l-4.082,3.061l-1.36,0.851l-1.191,1.02l-1.36,1.021l-4.082,2.551l-1.19,0.85l-1.361,0.85l-1.36,0.681l-1.191,0.85l-1.36,0.68l-1.361,0.851l-1.19,0.68l-1.361,0.68l-1.19,0.68l-1.361,0.511l-1.191,0.68l-1.19,0.51l-1.361,0.68l-7.142,3.062l-1.191,0.34l-1.19,0.51l-1.191,0.34l-1.19,0.51l-1.021,0.34l-2.381,0.681l-2.04,0.68l-1.191,0.34l-2.041,0.68l-1.02,0.17l-2.041,0.681l-1.02,0.17l-1.021,0.34l-1.02,0.17l-0.851,0.17l-1.02,0.34l-0.85,0.17l-1.021,0.17l-3.401,0.681l-0.85,0.34l-1.701,0.34l-0.85,-0l-0.851,0.17l-0.68,0.17l-0.85,0.17l-0.681,0.17l-0.85,0.17l-6.122,1.531l-0.511,0.17l-1.36,0.34l-0.51,0.17l-0.681,0.17l-1.02,0.34l-0.68,0.17l-0.511,0.34l-1.02,0.341l-0.51,0.34l-1.021,0.34l-0.51,0.34l-0.51,0.17l-1.02,0.68l-0.511,0.17l-0.51,0.341l-0.34,0.34l-0.51,0.34l-0.51,0.17l-0.511,0.34l-0.34,0.34l-0.51,0.34l-0.51,0.51l-0.51,0.341l-0.34,0.34l-0.511,0.34l-1.36,1.36l-0.51,0.341l-0.341,0.51l-0.51,0.51l-0.51,0.34l-0.34,0.51l-2.551,2.551l-0.34,0.511l-0.51,0.68l-2.211,2.211l-1.021,1.36l-1.19,1.191l-0.51,0.68l-0.681,0.68l-0.51,0.681l-0.68,0.68l-0.51,0.68l-3.402,3.401l-0.68,0.851l-3.742,3.741l-0.85,0.681l-0.68,0.85l-0.851,0.68l-1.7,1.701l-1.021,0.68l-0.85,0.85l-0.85,0.681l-1.021,0.85l-0.85,0.85l-1.02,0.681l-2.041,1.7l-1.021,0.681l-1.02,0.85l-1.191,0.85l-1.02,0.681l-2.381,1.7l-1.02,0.681l-1.191,0.85l-1.19,0.68l-1.361,0.851l-1.19,0.68l-1.191,0.85l-1.36,0.68l-1.361,0.851l-2.721,1.36l-1.361,0.851l-2.721,1.36l-3.061,1.361l-1.36,0.68l-3.062,1.361l-1.53,0.51l-1.701,0.68l-1.53,0.68l-1.701,0.51l-1.531,0.511l-1.7,0.68l-5.103,1.531l-1.87,0.51l-1.701,0.51l-1.701,0.34l-1.87,0.51l-1.871,0.34l-1.871,0.511l-7.483,1.36l-2.041,0.17l-1.87,0.34l-4.082,0.341l-2.041,0.34l-1.871,-0l-2.04,0.17l-2.211,0.17l-2.041,-0l-2.041,0.17l-4.252,-0l-2.041,-0.17l-2.21,-0l-2.211,-0.17l-2.211,-0l-2.041,-0.17l-2.211,-0.17l-2.211,-0.341l-2.211,-0.17l-4.421,-0.68l-2.381,-0.34l-4.422,-0.68l-2.211,-0.51l-2.381,-0.511l-4.422,-1.02l-2.381,-0.68l-2.211,-0.511l-2.381,-0.68l-2.21,-0.68l-2.381,-0.85l-2.211,-0.681l-2.211,-0.85l-2.381,-0.85l-2.211,-0.851l-2.381,-0.85l-2.211,-1.02l-2.381,-1.021l-4.422,-2.041l-2.381,-1.19l-2.21,-1.021l-2.211,-1.19l-2.381,-1.191l-2.211,-1.36l-2.211,-1.191l-6.633,-4.081l-2.211,-1.531l-2.21,-1.36l-2.041,-1.531l-2.211,-1.531l-2.041,-1.7l-2.211,-1.531l-2.041,-1.701l-2.211,-1.7l-2.04,-1.701l-2.041,-1.871l-2.041,-1.7l-2.041,-1.871l-7.823,-7.823l-7.483,-8.164l-1.701,-2.21l-1.87,-2.211l-3.402,-4.422l-1.7,-2.381l-1.701,-2.211l-1.701,-2.381l-1.53,-2.381l-1.701,-2.381l-1.531,-2.381l-1.53,-2.551l-1.361,-2.551l-1.53,-2.381l-1.361,-2.551l-1.361,-2.721l-2.721,-5.102l-1.36,-2.721l-3.572,-8.163l-1.02,-2.721l-1.191,-2.721l-1.02,-2.892l-1.02,-2.721l-1.021,-2.891l-4.251,-14.456l-0.681,-2.891l-0.68,-3.061l-0.68,-2.891l-1.021,-6.123l-0.51,-2.891l-1.02,-6.122l-0.681,-6.123l-0.17,-3.061l-0.34,-3.061l-0.17,-3.061l-0.17,-3.232l0,-3.061l-0.17,-3.061l0,-6.293l0.34,-6.122l0.17,-3.231l0.17,-3.062l0.34,-3.061l0.17,-3.231l0.511,-3.061l0.34,-3.062l0.51,-3.231l1.531,-9.184l0.68,-3.231l0.68,-3.061l0.851,-3.061l0.68,-3.062l1.7,-6.122l1.021,-2.891l0.85,-3.061l1.021,-3.062l1.02,-2.891l1.191,-3.061l1.19,-2.891l1.19,-3.061l2.381,-5.783l2.722,-5.782l1.53,-2.891l1.361,-2.721l1.53,-2.891l3.062,-5.443l1.7,-2.721l1.531,-2.721l1.701,-2.721l1.87,-2.721l1.701,-2.551l1.871,-2.721l5.612,-7.653l2.041,-2.381l2.041,-2.551l6.122,-7.143l2.211,-2.381l2.211,-2.211l2.211,-2.381l4.421,-4.422l2.381,-2.04l2.211,-2.211l4.762,-4.082l2.551,-2.041l2.381,-2.041l2.551,-1.87l2.381,-1.871l5.102,-3.742l2.551,-1.7l2.721,-1.701l2.551,-1.701l2.721,-1.7l2.551,-1.701l8.164,-4.592l2.721,-1.36l2.891,-1.361l5.442,-2.721l2.891,-1.361l2.721,-1.19l2.892,-1.19l2.891,-1.021l2.891,-1.19l8.673,-3.062l11.565,-3.401l2.891,-0.68l3.061,-0.68l2.892,-0.681l2.891,-0.51l3.061,-0.68l2.891,-0.51l2.891,-0.341l3.061,-0.51l8.674,-1.02l3.061,-0.17l2.891,-0.34l2.891,-0l3.062,-0.17l2.891,-0.171l5.782,0l2.891,0.171l2.892,-0l8.673,0.51l2.721,0.34l5.782,0.68l2.721,0.34l2.892,0.51l2.721,0.341l2.721,0.51l2.721,0.68l2.721,0.51l2.721,0.681l2.721,0.51l2.721,0.85l2.721,0.68l2.551,0.681l2.551,0.85l2.721,0.85l5.103,1.701l2.551,1.02l2.381,1.021l2.551,1.02l2.38,1.021l2.552,1.02l2.38,1.191l2.381,1.02l2.381,1.19l2.211,1.191l2.381,1.19l2.211,1.191l2.381,1.36l2.211,1.361l2.211,1.19l2.041,1.361l2.211,1.361l2.04,1.53l4.082,2.721l4.082,3.061l1.87,1.531l2.041,1.531l5.612,4.592l1.701,1.7l1.871,1.531l5.102,5.102l1.531,1.701l1.7,1.7l4.592,5.102l1.361,1.701l1.53,1.871l2.721,3.401l1.361,1.871l1.36,1.7l1.191,1.871l1.36,1.871l1.191,1.701l2.381,3.741l1.02,1.701l1.191,1.871l3.061,5.612l0.85,1.701l1.021,1.87l1.7,3.742l0.851,1.7l0.85,1.871l0.68,1.871l0.851,1.871l0.68,1.7l1.361,3.742l0.51,1.701l0.68,1.87l0.51,1.871l0.51,1.701l0.681,1.871l0.34,1.7l0.51,1.701l0.51,1.871l0.68,3.401l0.511,1.701l0.34,1.87l0.17,1.701l0.34,1.701l0.34,1.53l0.34,3.402l0.34,1.7l0.171,1.531l0.17,1.701l-0,1.53l0.17,1.701l0.17,1.531l-0,3.061l0.17,1.53l-0,4.592l-0.17,1.531l-0,2.891l-0.17,1.361l-0,1.36l-0.17,1.531l-0,1.36l-0.17,1.361l-0.171,1.19l-0.51,4.082l-0.34,2.381l-0.17,1.361l-0.34,1.19l-0.34,2.381l-0.34,1.19l-0.17,1.191l-0.171,1.02l-0.34,1.191l-0.17,1.02l-0.34,1.191l-0.17,1.02l-0.68,2.041l-0.17,1.02l-0.681,2.041l-0.17,0.85l-0.68,2.041l-0.17,0.851l-0.34,0.85l-0.34,1.02l-0.17,0.851l-0.34,0.85l-0.17,0.85l-0.341,0.851l-0.34,0.68l-0.17,0.85l-0.34,0.851l-0.17,0.68l-0.34,0.85l-0.17,0.681l-0.34,0.85l-0.341,1.36l-0.34,0.681l-0.34,1.36l-0.34,0.681l-0.85,3.401l-0.17,0.51l-0.17,0.68l-0.17,0.511l-0.171,0.68l0,0.68l-0.17,0.51l-0.17,0.681l0,0.51l-0.17,0.51l0,0.68l-0.17,0.511l0,1.19l-0.17,0.51l0,1.701" style="fill:none;stroke:#fff;stroke-width:15.31px"/></g></g></g></g></g></g></g><g id="badge"><g id="badge-background"><ellipse cx="635" cy="385" rx="125" ry="125"/></g><g id="badge-text"><text x="588.803" y="443.804" style="font-family:'FiraCodeNFM-Reg','FiraCode Nerd Font Mono',monospace;font-size:166.667px;fill:#fff">8</text></g></g></g></svg>