<?xml version="1.0" encoding="UTF-8"?>
<svg width="294px" height="300px" viewBox="0 0 294 300" version="1.1" xmlns="http://www.w3.org/2000/svg" xmlns:xlink="http://www.w3.org/1999/xlink" xmlns:sketch="http://www.bohemiancoding.com/sketch/ns">
    <!-- Generator: Sketch 3.4.2 (15855) - http://www.bohemiancoding.com/sketch -->
    <title>navigation-logo-thin</title>
    <desc>Created with Sketch.</desc>
    <defs></defs>
    <g id="Page-1" stroke="none" stroke-width="1" fill="none" fill-rule="evenodd" sketch:type="MSPage">
        <g id="Spiro" sketch:type="MSLayerGroup" transform="translate(4.000000, 5.000000)" stroke-opacity="0.9" stroke="#28002D" stroke-width="9">
            <path d="M218,145 L218,145.3 L218,145.7 L218,146 L218,146.3 L218.1,146.7 L218.1,147 L218.1,147.3 L218.2,147.7 L218.2,148 L218.3,148.3 L218.4,148.7 L218.4,149 L218.5,149.4 L218.6,149.7 L218.7,150.1 L218.7,150.5 L218.8,150.8 L218.9,151.2 L219,151.6 L219.1,151.9 L219.3,152.3 L219.4,152.7 L219.5,153.1 L219.6,153.5 L219.7,153.9 L219.9,154.3 L220,154.8 L220.1,155.2 L220.3,155.6 L220.4,156 L220.6,156.5 L220.7,156.9 L220.9,157.4 L221,157.9 L221.2,158.4 L221.4,158.8 L221.5,159.3 L221.7,159.8 L221.9,160.3 L222,160.9 L222.2,161.4 L222.3,161.9 L222.5,162.5 L222.7,163 L222.8,163.6 L223,164.2 L223.2,164.7 L223.3,165.3 L223.5,165.9 L223.7,166.5 L223.8,167.2 L224,167.8 L224.1,168.4 L224.3,169.1 L224.4,169.7 L224.6,170.4 L224.7,171.1 L224.8,171.8 L225,172.5 L225.1,173.2 L225.2,173.9 L225.3,174.7 L225.5,175.4 L225.6,176.2 L225.7,176.9 L225.8,177.7 L225.8,178.5 L225.9,179.3 L226,180.1 L226.1,180.9 L226.1,181.7 L226.2,182.5 L226.2,183.4 L226.2,184.2 L226.3,185.1 L226.3,186 L226.3,186.8 L226.3,187.7 L226.2,188.6 L226.2,189.5 L226.2,190.4 L226.1,191.4 L226.1,192.3 L226,193.2 L225.9,194.2 L225.8,195.2 L225.7,196.1 L225.6,197.1 L225.5,198.1 L225.3,199.1 L225.1,200 L225,201 L224.8,202.1 L224.6,203.1 L224.4,204.1 L224.1,205.1 L223.9,206.1 L223.6,207.2 L223.3,208.2 L223,209.3 L222.7,210.3 L222.4,211.4 L222,212.4 L221.7,213.5 L221.3,214.6 L220.9,215.6 L220.5,216.7 L220.1,217.8 L219.6,218.8 L219.2,219.9 L218.7,221 L218.2,222.1 L217.7,223.1 L217.1,224.2 L216.6,225.3 L216,226.4 L215.4,227.5 L214.8,228.5 L214.2,229.6 L213.5,230.7 L212.9,231.8 L212.2,232.8 L211.5,233.9 L210.8,235 L210,236 L209.3,237.1 L208.5,238.1 L207.7,239.2 L206.9,240.2 L206,241.3 L205.2,242.3 L204.3,243.3 L203.4,244.3 L202.5,245.3 L201.6,246.4 L200.6,247.3 L199.7,248.3 L198.7,249.3 L197.7,250.3 L196.6,251.2 L195.6,252.2 L194.5,253.1 L193.4,254.1 L192.3,255 L191.2,255.9 L190.1,256.8 L188.9,257.7 L187.7,258.5 L186.6,259.4 L185.3,260.2 L184.1,261.1 L182.9,261.9 L181.6,262.7 L180.3,263.5 L179,264.3 L177.7,265 L176.4,265.8 L175,266.5 L173.7,267.2 L172.3,267.9 L170.9,268.6 L169.5,269.2 L168.1,269.9 L166.7,270.5 L165.2,271.1 L163.7,271.7 L162.3,272.2 L160.8,272.8 L159.3,273.3 L157.7,273.8 L156.2,274.3 L154.7,274.7 L153.1,275.2 L151.5,275.6 L150,276 L148.4,276.4 L146.8,276.7 L145.2,277.1 L143.6,277.4 L141.9,277.7 L140.3,277.9 L138.6,278.2 L137,278.4 L135.3,278.6 L133.7,278.8 L132,278.9 L130.3,279 L128.6,279.1 L126.9,279.2 L125.2,279.2 L123.5,279.3 L121.8,279.3 L120.1,279.2 L118.4,279.2 L116.6,279.1 L114.9,279 L113.2,278.9 L111.4,278.7 L109.7,278.5 L108,278.3 L106.2,278.1 L104.5,277.8 L102.8,277.5 L101,277.2 L99.3,276.9 L97.6,276.5 L95.9,276.1 L94.1,275.7 L92.4,275.3 L90.7,274.8 L89,274.3 L87.3,273.8 L85.6,273.2 L83.9,272.7 L82.2,272.1 L80.5,271.4 L78.8,270.8 L77.1,270.1 L75.5,269.4 L73.8,268.7 L72.2,267.9 L70.5,267.1 L68.9,266.3 L67.3,265.5 L65.7,264.6 L64.1,263.7 L62.5,262.8 L60.9,261.9 L59.3,260.9 L57.8,259.9 L56.2,258.9 L54.7,257.9 L53.2,256.8 L51.7,255.8 L50.2,254.7 L48.8,253.5 L47.3,252.4 L45.9,251.2 L44.5,250 L43.1,248.8 L41.7,247.6 L40.3,246.3 L39,245 L37.6,243.7 L36.3,242.4 L35,241.1 L33.8,239.7 L32.5,238.3 L31.3,236.9 L30.1,235.5 L28.9,234.1 L27.7,232.6 L26.6,231.2 L25.4,229.7 L24.3,228.2 L23.2,226.6 L22.2,225.1 L21.2,223.5 L20.1,222 L19.1,220.4 L18.2,218.8 L17.2,217.2 L16.3,215.5 L15.4,213.9 L14.6,212.2 L13.7,210.6 L12.9,208.9 L12.1,207.2 L11.3,205.5 L10.6,203.8 L9.9,202.1 L9.2,200.3 L8.5,198.6 L7.9,196.8 L7.3,195.1 L6.7,193.3 L6.1,191.5 L5.6,189.7 L5.1,187.9 L4.6,186.1 L4.2,184.3 L3.7,182.5 L3.4,180.7 L3,178.9 L2.6,177.1 L2.3,175.3 L2,173.4 L1.8,171.6 L1.6,169.8 L1.4,167.9 L1.2,166.1 L1,164.3 L0.9,162.4 L0.8,160.6 L0.8,158.8 L0.7,156.9 L0.7,155.1 L0.7,153.3 L0.8,151.4 L0.8,149.6 L0.9,147.8 L1.1,146 L1.2,144.2 L1.4,142.4 L1.6,140.6 L1.8,138.8 L2.1,137 L2.4,135.2 L2.7,133.4 L3,131.7 L3.4,129.9 L3.8,128.2 L4.2,126.4 L4.6,124.7 L5.1,123 L5.6,121.3 L6.1,119.6 L6.6,117.9 L7.2,116.2 L7.7,114.5 L8.3,112.9 L9,111.3 L9.6,109.6 L10.3,108 L11,106.4 L11.7,104.8 L12.4,103.3 L13.2,101.7 L14,100.2 L14.8,98.6 L15.6,97.1 L16.5,95.6 L17.3,94.2 L18.2,92.7 L19.1,91.3 L20,89.8 L20.9,88.4 L21.9,87 L22.9,85.7 L23.9,84.3 L24.9,83 L25.9,81.7 L26.9,80.4 L28,79.1 L29.1,77.8 L30.1,76.6 L31.2,75.4 L32.4,74.2 L33.5,73 L34.6,71.8 L35.8,70.7 L36.9,69.6 L38.1,68.5 L39.3,67.4 L40.5,66.3 L41.7,65.3 L42.9,64.3 L44.2,63.3 L45.4,62.3 L46.7,61.4 L47.9,60.5 L49.2,59.6 L50.5,58.7 L51.8,57.8 L53,57 L54.3,56.2 L55.6,55.4 L57,54.6 L58.3,53.9 L59.6,53.1 L60.9,52.4 L62.2,51.8 L63.6,51.1 L64.9,50.5 L66.2,49.8 L67.6,49.2 L68.9,48.7 L70.3,48.1 L71.6,47.6 L73,47.1 L74.3,46.6 L75.7,46.1 L77,45.7 L78.3,45.3 L79.7,44.9 L81,44.5 L82.4,44.1 L83.7,43.8 L85,43.5 L86.4,43.2 L87.7,42.9 L89,42.6 L90.4,42.4 L91.7,42.2 L93,42 L94.3,41.8 L95.6,41.6 L96.9,41.5 L98.2,41.4 L99.5,41.3 L100.8,41.2 L102,41.1 L103.3,41.1 L104.6,41 L105.8,41 L107.1,41 L108.3,41.1 L109.5,41.1 L110.7,41.1 L111.9,41.2 L113.1,41.3 L114.3,41.4 L115.5,41.5 L116.7,41.6 L117.8,41.8 L119,41.9 L120.1,42.1 L121.3,42.3 L122.4,42.5 L123.5,42.7 L124.6,42.9 L125.7,43.2 L126.7,43.4 L127.8,43.7 L128.8,43.9 L129.9,44.2 L130.9,44.5 L131.9,44.8 L132.9,45.1 L133.9,45.5 L134.9,45.8 L135.8,46.1 L136.8,46.5 L137.7,46.8 L138.6,47.2 L139.5,47.6 L140.4,48 L141.3,48.4 L142.2,48.8 L143.1,49.2 L143.9,49.6 L144.7,50 L145.6,50.4 L146.4,50.8 L147.2,51.3 L147.9,51.7 L148.7,52.1 L149.5,52.6 L150.2,53 L150.9,53.5 L151.7,53.9 L152.4,54.4 L153,54.9 L153.7,55.3 L154.4,55.8 L155,56.2 L155.7,56.7 L156.3,57.2 L156.9,57.6 L157.5,58.1 L158.1,58.6 L158.7,59 L159.3,59.5 L159.8,60 L160.4,60.4 L160.9,60.9 L161.5,61.4 L162,61.8 L162.5,62.3 L163,62.8 L163.5,63.2 L163.9,63.7 L164.4,64.1 L164.9,64.6 L165.3,65 L165.7,65.4 L166.2,65.9 L166.6,66.3 L167,66.7 L167.4,67.2 L167.8,67.6 L168.2,68 L168.6,68.4 L168.9,68.8 L169.3,69.2 L169.6,69.6 L170,70 L170.3,70.4 L170.7,70.7 L171,71.1 L171.3,71.5 L171.6,71.8 L172,72.2 L172.3,72.6 L172.6,72.9 L172.9,73.2 L173.2,73.6 L173.5,73.9 L173.8,74.2 L174,74.5 L174.3,74.8 L174.6,75.1 L174.9,75.4 L175.2,75.7 L175.4,76 L175.7,76.3 L176,76.5 L176.3,76.8 L176.5,77 L176.8,77.3 L177.1,77.5 L177.3,77.8 L177.6,78 L177.9,78.2 L178.1,78.4 L178.4,78.6 L178.7,78.8 L178.9,79 L179.2,79.2 L179.5,79.4 L179.8,79.6 L180,79.8 L180.3,79.9 L180.6,80.1 L180.9,80.3 L181.2,80.4 L181.5,80.6 L181.8,80.7 L182.1,80.9 L182.4,81 L182.7,81.1 L183,81.3 L183.3,81.4 L183.7,81.5 L184,81.6 L184.3,81.7 L184.7,81.9 L185,82 L185.4,82.1 L185.7,82.2 L186.1,82.3 L186.5,82.4 L186.9,82.5 L187.2,82.6 L187.6,82.7 L188,82.8 L188.4,82.9 L188.8,82.9 L189.3,83 L189.7,83.1 L190.1,83.2 L190.6,83.3 L191,83.4 L191.5,83.5 L191.9,83.6 L192.4,83.7 L192.9,83.8 L193.4,83.9 L193.9,84 L194.4,84.1 L194.9,84.2 L195.4,84.3 L195.9,84.4 L196.5,84.5 L197,84.7 L197.6,84.8 L198.1,84.9 L198.7,85.1 L199.2,85.2 L199.8,85.3 L200.4,85.5 L201,85.7 L201.6,85.8 L202.2,86 L202.9,86.2 L203.5,86.3 L204.1,86.5 L204.8,86.7 L205.4,86.9 L206.1,87.2 L206.7,87.4 L207.4,87.6 L208.1,87.9 L208.8,88.1 L209.4,88.4 L210.1,88.6 L210.8,88.9 L211.5,89.2 L212.3,89.5 L213,89.8 L213.7,90.1 L214.4,90.5 L215.2,90.8 L215.9,91.2 L216.6,91.5 L217.4,91.9 L218.1,92.3 L218.9,92.7 L219.7,93.1 L220.4,93.5 L221.2,94 L221.9,94.4 L222.7,94.9 L223.5,95.4 L224.3,95.9 L225,96.4 L225.8,96.9 L226.6,97.5 L227.4,98 L228.2,98.6 L228.9,99.2 L229.7,99.8 L230.5,100.4 L231.3,101 L232.1,101.6 L232.8,102.3 L233.6,103 L234.4,103.7 L235.2,104.4 L235.9,105.1 L236.7,105.8 L237.5,106.6 L238.2,107.4 L239,108.1 L239.7,108.9 L240.5,109.8 L241.2,110.6 L242,111.4 L242.7,112.3 L243.4,113.2 L244.1,114.1 L244.8,115 L245.5,115.9 L246.2,116.9 L246.9,117.8 L247.6,118.8 L248.3,119.8 L249,120.8 L249.6,121.8 L250.3,122.9 L250.9,123.9 L251.5,125 L252.1,126.1 L252.7,127.2 L253.3,128.3 L253.9,129.4 L254.5,130.6 L255,131.8 L255.6,132.9 L256.1,134.1 L256.6,135.3 L257.1,136.6 L257.6,137.8 L258.1,139 L258.5,140.3 L259,141.6 L259.4,142.9 L259.8,144.2 L260.2,145.5 L260.6,146.8 L261,148.1 L261.3,149.5 L261.6,150.9 L261.9,152.2 L262.2,153.6 L262.5,155 L262.8,156.4 L263,157.8 L263.2,159.3 L263.4,160.7 L263.6,162.1 L263.8,163.6 L263.9,165.1 L264,166.5 L264.1,168 L264.2,169.5 L264.3,171 L264.3,172.5 L264.3,174 L264.3,175.5 L264.3,177.1 L264.2,178.6 L264.1,180.1 L264,181.7 L263.9,183.2 L263.8,184.8 L263.6,186.3 L263.4,187.9 L263.2,189.4 L263,191 L262.7,192.6 L262.4,194.1 L262.1,195.7 L261.8,197.3 L261.4,198.8 L261,200.4 L260.6,202 L260.2,203.5 L259.8,205.1 L259.3,206.7 L258.8,208.2 L258.3,209.8 L257.7,211.3 L257.1,212.9 L256.5,214.4 L255.9,216 L255.3,217.5 L254.6,219.1 L253.9,220.6 L253.2,222.1 L252.4,223.6 L251.6,225.1 L250.9,226.6 L250,228.1 L249.2,229.6 L248.3,231.1 L247.4,232.6 L246.5,234 L245.6,235.5 L244.6,236.9 L243.6,238.3 L242.6,239.8 L241.6,241.2 L240.5,242.5 L239.5,243.9 L238.4,245.3 L237.2,246.6 L236.1,248 L234.9,249.3 L233.7,250.6 L232.5,251.9 L231.3,253.2 L230,254.5 L228.7,255.7 L227.5,256.9 L226.1,258.1 L224.8,259.3 L223.4,260.5 L222.1,261.7 L220.7,262.8 L219.3,263.9 L217.8,265 L216.4,266.1 L214.9,267.2 L213.4,268.2 L211.9,269.2 L210.4,270.2 L208.8,271.2 L207.3,272.2 L205.7,273.1 L204.1,274 L202.5,274.9 L200.9,275.8 L199.3,276.6 L197.6,277.4 L196,278.2 L194.3,279 L192.6,279.7 L190.9,280.5 L189.2,281.1 L187.5,281.8 L185.7,282.5 L184,283.1 L182.2,283.7 L180.5,284.3 L178.7,284.8 L176.9,285.3 L175.1,285.8 L173.3,286.3 L171.5,286.7 L169.7,287.1 L167.9,287.5 L166,287.9 L164.2,288.2 L162.4,288.5 L160.5,288.8 L158.7,289 L156.8,289.2 L154.9,289.4 L153.1,289.6 L151.2,289.7 L149.4,289.8 L147.5,289.9 L145.6,290 L143.7,290 L141.9,290 L140,290 L138.1,289.9 L136.3,289.8 L134.4,289.7 L132.5,289.6 L130.7,289.4 L128.8,289.2 L127,289 L125.1,288.7 L123.3,288.4 L121.4,288.1 L119.6,287.8 L117.8,287.4 L115.9,287 L114.1,286.6 L112.3,286.2 L110.5,285.7 L108.7,285.2 L106.9,284.7 L105.2,284.1 L103.4,283.6 L101.7,283 L99.9,282.3 L98.2,281.7 L96.5,281 L94.7,280.3 L93.1,279.6 L91.4,278.8 L89.7,278.1 L88,277.3 L86.4,276.4 L84.8,275.6 L83.1,274.7 L81.5,273.8 L80,272.9 L78.4,272 L76.8,271 L75.3,270 L73.8,269 L72.3,268 L70.8,267 L69.3,265.9 L67.9,264.8 L66.5,263.7 L65,262.6 L63.7,261.4 L62.3,260.3 L60.9,259.1 L59.6,257.9 L58.3,256.7 L57,255.4 L55.7,254.2 L54.5,252.9 L53.2,251.6 L52,250.4 L50.8,249 L49.7,247.7 L48.5,246.4 L47.4,245 L46.3,243.6 L45.3,242.3 L44.2,240.9 L43.2,239.5 L42.2,238 L41.2,236.6 L40.2,235.2 L39.3,233.7 L38.4,232.3 L37.5,230.8 L36.6,229.3 L35.8,227.8 L35,226.3 L34.2,224.8 L33.4,223.3 L32.7,221.8 L32,220.3 L31.3,218.7 L30.6,217.2 L30,215.7 L29.3,214.1 L28.8,212.6 L28.2,211 L27.6,209.5 L27.1,207.9 L26.6,206.3 L26.1,204.8 L25.7,203.2 L25.3,201.6 L24.9,200.1 L24.5,198.5 L24.2,196.9 L23.8,195.4 L23.5,193.8 L23.2,192.2 L23,190.7 L22.8,189.1 L22.5,187.6 L22.4,186 L22.2,184.5 L22.1,182.9 L21.9,181.4 L21.9,179.8 L21.8,178.3 L21.7,176.8 L21.7,175.2 L21.7,173.7 L21.7,172.2 L21.8,170.7 L21.8,169.2 L21.9,167.7 L22,166.2 L22.1,164.8 L22.3,163.3 L22.4,161.9 L22.6,160.4 L22.8,159 L23,157.5 L23.3,156.1 L23.5,154.7 L23.8,153.3 L24.1,151.9 L24.4,150.6 L24.8,149.2 L25.1,147.9 L25.5,146.5 L25.9,145.2 L26.3,143.9 L26.7,142.6 L27.1,141.3 L27.6,140 L28,138.8 L28.5,137.5 L29,136.3 L29.5,135.1 L30,133.9 L30.5,132.7 L31.1,131.5 L31.6,130.4 L32.2,129.2 L32.8,128.1 L33.4,127 L34,125.9 L34.6,124.8 L35.2,123.7 L35.9,122.7 L36.5,121.6 L37.2,120.6 L37.9,119.6 L38.5,118.6 L39.2,117.6 L39.9,116.7 L40.6,115.7 L41.3,114.8 L42,113.9 L42.7,113 L43.5,112.1 L44.2,111.3 L44.9,110.4 L45.7,109.6 L46.4,108.8 L47.2,108 L47.9,107.2 L48.7,106.4 L49.5,105.7 L50.2,104.9 L51,104.2 L51.8,103.5 L52.5,102.8 L53.3,102.2 L54.1,101.5 L54.9,100.9 L55.7,100.3 L56.4,99.6 L57.2,99 L58,98.5 L58.8,97.9 L59.6,97.4 L60.3,96.8 L61.1,96.3 L61.9,95.8 L62.7,95.3 L63.4,94.8 L64.2,94.3 L65,93.9 L65.7,93.5 L66.5,93 L67.3,92.6 L68,92.2 L68.8,91.8 L69.5,91.4 L70.3,91.1 L71,90.7 L71.7,90.4 L72.5,90.1 L73.2,89.7 L73.9,89.4 L74.6,89.1 L75.3,88.9 L76,88.6 L76.7,88.3 L77.4,88.1 L78.1,87.8 L78.7,87.6 L79.4,87.3 L80.1,87.1 L80.7,86.9 L81.4,86.7 L82,86.5 L82.6,86.3 L83.3,86.1 L83.9,86 L84.5,85.8 L85.1,85.6 L85.7,85.5 L86.3,85.3 L86.9,85.2 L87.4,85 L88,84.9 L88.6,84.8 L89.1,84.6 L89.7,84.5 L90.2,84.4 L90.7,84.3 L91.2,84.2 L91.7,84.1 L92.2,84 L92.7,83.9 L93.2,83.8 L93.7,83.7 L94.2,83.6 L94.6,83.5 L95.1,83.4 L95.5,83.3 L96,83.2 L96.4,83.1 L96.8,83 L97.2,82.9 L97.6,82.8 L98.1,82.7 L98.4,82.6 L98.8,82.6 L99.2,82.5 L99.6,82.4 L100,82.3 L100.3,82.2 L100.7,82.1 L101,81.9 L101.4,81.8 L101.7,81.7 L102.1,81.6 L102.4,81.5 L102.7,81.4 L103,81.2 L103.4,81.1 L103.7,81 L104,80.8 L104.3,80.7 L104.6,80.6 L104.9,80.4 L105.2,80.2 L105.4,80.1 L105.7,79.9 L106,79.7 L106.3,79.6 L106.6,79.4 L106.8,79.2 L107.1,79 L107.4,78.8 L107.7,78.6 L107.9,78.4 L108.2,78.2 L108.5,77.9 L108.7,77.7 L109,77.5 L109.3,77.2 L109.5,77 L109.8,76.7 L110.1,76.5 L110.3,76.2 L110.6,75.9 L110.9,75.6 L111.2,75.4 L111.4,75.1 L111.7,74.8 L112,74.5 L112.3,74.1 L112.6,73.8 L112.9,73.5 L113.2,73.2 L113.5,72.8 L113.8,72.5 L114.1,72.1 L114.4,71.8 L114.7,71.4 L115.1,71 L115.4,70.7 L115.7,70.3 L116.1,69.9 L116.4,69.5 L116.8,69.1 L117.2,68.7 L117.5,68.3 L117.9,67.9 L118.3,67.5 L118.7,67.1 L119.1,66.6 L119.5,66.2 L119.9,65.8 L120.4,65.3 L120.8,64.9 L121.2,64.5 L121.7,64 L122.2,63.6 L122.6,63.1 L123.1,62.7 L123.6,62.2 L124.1,61.7 L124.6,61.3 L125.2,60.8 L125.7,60.4 L126.3,59.9 L126.8,59.4 L127.4,59 L128,58.5 L128.6,58 L129.2,57.6 L129.8,57.1 L130.4,56.6 L131.1,56.2 L131.7,55.7 L132.4,55.2 L133.1,54.8 L133.8,54.3 L134.5,53.8 L135.2,53.4 L135.9,52.9 L136.7,52.5 L137.4,52.1 L138.2,51.6 L139,51.2 L139.8,50.7 L140.6,50.3 L141.4,49.9 L142.3,49.5 L143.1,49.1 L144,48.7 L144.9,48.3 L145.7,47.9 L146.6,47.5 L147.6,47.1 L148.5,46.8 L149.4,46.4 L150.4,46.1 L151.3,45.7 L152.3,45.4 L153.3,45.1 L154.3,44.8 L155.3,44.5 L156.3,44.2 L157.4,43.9 L158.4,43.6 L159.5,43.4 L160.6,43.1 L161.7,42.9 L162.7,42.7 L163.9,42.4 L165,42.2 L166.1,42.1 L167.2,41.9 L168.4,41.7 L169.6,41.6 L170.7,41.5 L171.9,41.4 L173.1,41.3 L174.3,41.2 L175.5,41.1 L176.7,41.1 L178,41 L179.2,41 L180.4,41 L181.7,41.1 L183,41.1 L184.2,41.1 L185.5,41.2 L186.8,41.3 L188.1,41.4 L189.4,41.5 L190.7,41.7 L192,41.8 L193.3,42 L194.6,42.2 L195.9,42.4 L197.2,42.7 L198.6,42.9 L199.9,43.2 L201.2,43.5 L202.6,43.9 L203.9,44.2 L205.2,44.6 L206.6,44.9 L207.9,45.3 L209.3,45.8 L210.6,46.2 L212,46.7 L213.3,47.2 L214.7,47.7 L216,48.2 L217.4,48.8 L218.7,49.4 L220,50 L221.4,50.6 L222.7,51.2 L224,51.9 L225.4,52.6 L226.7,53.3 L228,54 L229.3,54.8 L230.6,55.5 L231.9,56.3 L233.2,57.2 L234.5,58 L235.8,58.9 L237.1,59.8 L238.3,60.7 L239.6,61.6 L240.8,62.5 L242.1,63.5 L243.3,64.5 L244.5,65.5 L245.7,66.6 L246.9,67.6 L248.1,68.7 L249.3,69.8 L250.5,70.9 L251.6,72.1 L252.7,73.2 L253.9,74.4 L255,75.6 L256.1,76.8 L257.2,78.1 L258.2,79.3 L259.3,80.6 L260.3,81.9 L261.3,83.2 L262.3,84.6 L263.3,85.9 L264.3,87.3 L265.2,88.7 L266.2,90.1 L267.1,91.6 L268,93 L268.9,94.5 L269.7,95.9 L270.6,97.4 L271.4,99 L272.2,100.5 L272.9,102 L273.7,103.6 L274.4,105.2 L275.2,106.7 L275.8,108.3 L276.5,110 L277.2,111.6 L277.8,113.2 L278.4,114.9 L279,116.6 L279.5,118.2 L280,119.9 L280.5,121.6 L281,123.3 L281.5,125.1 L281.9,126.8 L282.3,128.5 L282.7,130.3 L283.1,132 L283.4,133.8 L283.7,135.6 L284,137.4 L284.2,139.1 L284.4,140.9 L284.6,142.7 L284.8,144.5 L285,146.4 L285.1,148.2 L285.2,150 L285.2,151.8 L285.3,153.6 L285.3,155.5 L285.3,157.3 L285.2,159.1 L285.2,161 L285.1,162.8 L284.9,164.6 L284.8,166.5 L284.6,168.3 L284.4,170.1 L284.2,172 L283.9,173.8 L283.6,175.6 L283.3,177.5 L282.9,179.3 L282.6,181.1 L282.2,182.9 L281.7,184.7 L281.3,186.5 L280.8,188.3 L280.3,190.1 L279.8,191.9 L279.2,193.7 L278.6,195.4 L278,197.2 L277.3,198.9 L276.7,200.7 L276,202.4 L275.3,204.1 L274.5,205.9 L273.7,207.6 L272.9,209.2 L272.1,210.9 L271.3,212.6 L270.4,214.2 L269.5,215.9 L268.6,217.5 L267.6,219.1 L266.7,220.7 L265.7,222.3 L264.6,223.9 L263.6,225.4 L262.5,227 L261.4,228.5 L260.3,230 L259.2,231.5 L258.1,232.9 L256.9,234.4 L255.7,235.8 L254.5,237.2 L253.2,238.6 L252,240 L250.7,241.4 L249.4,242.7 L248.1,244 L246.8,245.3 L245.4,246.6 L244,247.8 L242.6,249.1 L241.2,250.3 L239.8,251.5 L238.4,252.6 L236.9,253.8 L235.5,254.9 L234,256 L232.5,257.1 L231,258.1 L229.4,259.1 L227.9,260.1 L226.3,261.1 L224.8,262.1 L223.2,263 L221.6,263.9 L220,264.8 L218.4,265.6 L216.8,266.5 L215.1,267.3 L213.5,268 L211.9,268.8 L210.2,269.5 L208.5,270.2 L206.9,270.9 L205.2,271.6 L203.5,272.2 L201.8,272.8 L200.1,273.3 L198.4,273.9 L196.7,274.4 L195,274.9 L193.2,275.4 L191.5,275.8 L189.8,276.2 L188.1,276.6 L186.3,277 L184.6,277.3 L182.9,277.6 L181.1,277.9 L179.4,278.1 L177.7,278.4 L175.9,278.6 L174.2,278.8 L172.5,278.9 L170.7,279 L169,279.1 L167.3,279.2 L165.6,279.2 L163.9,279.3 L162.2,279.3 L160.4,279.2 L158.7,279.2 L157.1,279.1 L155.4,279 L153.7,278.9 L152,278.7 L150.3,278.6 L148.7,278.4 L147,278.1 L145.4,277.9 L143.7,277.6 L142.1,277.3 L140.5,277 L138.9,276.7 L137.3,276.3 L135.7,275.9 L134.1,275.5 L132.6,275.1 L131,274.7 L129.5,274.2 L127.9,273.7 L126.4,273.2 L124.9,272.7 L123.4,272.1 L122,271.5 L120.5,271 L119.1,270.4 L117.6,269.7 L116.2,269.1 L114.8,268.4 L113.4,267.7 L112,267 L110.7,266.3 L109.3,265.6 L108,264.9 L106.7,264.1 L105.4,263.3 L104.1,262.5 L102.9,261.7 L101.6,260.9 L100.4,260.1 L99.2,259.2 L98,258.4 L96.8,257.5 L95.7,256.6 L94.6,255.7 L93.4,254.8 L92.3,253.9 L91.3,252.9 L90.2,252 L89.2,251.1 L88.1,250.1 L87.1,249.1 L86.1,248.1 L85.2,247.1 L84.2,246.1 L83.3,245.1 L82.4,244.1 L81.5,243.1 L80.6,242.1 L79.8,241.1 L78.9,240 L78.1,239 L77.3,237.9 L76.6,236.9 L75.8,235.8 L75.1,234.8 L74.4,233.7 L73.7,232.6 L73,231.5 L72.3,230.5 L71.7,229.4 L71.1,228.3 L70.4,227.2 L69.9,226.2 L69.3,225.1 L68.7,224 L68.2,222.9 L67.7,221.8 L67.2,220.8 L66.7,219.7 L66.3,218.6 L65.8,217.5 L65.4,216.5 L65,215.4 L64.6,214.3 L64.2,213.3 L63.9,212.2 L63.5,211.2 L63.2,210.1 L62.9,209.1 L62.6,208 L62.3,207 L62.1,205.9 L61.8,204.9 L61.6,203.9 L61.4,202.9 L61.2,201.9 L61,200.8 L60.8,199.8 L60.7,198.9 L60.5,197.9 L60.4,196.9 L60.3,195.9 L60.2,195 L60.1,194 L60,193.1 L59.9,192.1 L59.9,191.2 L59.8,190.3 L59.8,189.3 L59.7,188.4 L59.7,187.5 L59.7,186.7 L59.7,185.8 L59.7,184.9 L59.8,184.1 L59.8,183.2 L59.8,182.4 L59.9,181.5 L60,180.7 L60,179.9 L60.1,179.1 L60.2,178.3 L60.3,177.5 L60.4,176.8 L60.5,176 L60.6,175.2 L60.7,174.5 L60.8,173.8 L60.9,173.1 L61.1,172.4 L61.2,171.7 L61.3,171 L61.5,170.3 L61.6,169.6 L61.8,169 L61.9,168.3 L62.1,167.7 L62.2,167 L62.4,166.4 L62.5,165.8 L62.7,165.2 L62.9,164.6 L63,164 L63.2,163.5 L63.4,162.9 L63.5,162.4 L63.7,161.8 L63.9,161.3 L64,160.8 L64.2,160.2 L64.3,159.7 L64.5,159.2 L64.7,158.7 L64.8,158.3 L65,157.8 L65.1,157.3 L65.3,156.9 L65.4,156.4 L65.6,156 L65.7,155.5 L65.9,155.1 L66,154.7 L66.2,154.2 L66.3,153.8 L66.4,153.4 L66.5,153 L66.7,152.6 L66.8,152.3 L66.9,151.9 L67,151.5 L67.1,151.1 L67.2,150.7 L67.3,150.4 L67.4,150 L67.4,149.7 L67.5,149.3 L67.6,149 L67.7,148.6 L67.7,148.3 L67.8,147.9 L67.8,147.6 L67.9,147.3 L67.9,146.9 L67.9,146.6 L68,146.3 L68,145.9 L68,145.6 L68,145.3 L68,144.9 L68,144.6 L68,144.3 L68,143.9 L67.9,143.6 L67.9,143.3 L67.9,142.9 L67.8,142.6 L67.8,142.3 L67.8,141.9 L67.7,141.6 L67.6,141.2 L67.6,140.9 L67.5,140.5 L67.4,140.2 L67.3,139.8 L67.2,139.5 L67.1,139.1 L67,138.7 L66.9,138.4 L66.8,138 L66.7,137.6 L66.6,137.2 L66.5,136.8 L66.4,136.4 L66.2,136 L66.1,135.6 L66,135.2 L65.8,134.7 L65.7,134.3 L65.5,133.9 L65.4,133.4 L65.2,133 L65.1,132.5 L64.9,132 L64.8,131.5 L64.6,131.1 L64.4,130.6 L64.3,130.1 L64.1,129.6 L63.9,129 L63.8,128.5 L63.6,128 L63.5,127.4 L63.3,126.9 L63.1,126.3 L63,125.7 L62.8,125.1 L62.6,124.5 L62.5,123.9 L62.3,123.3 L62.2,122.7 L62,122.1 L61.8,121.4 L61.7,120.8 L61.5,120.1 L61.4,119.4 L61.3,118.8 L61.1,118.1 L61,117.4 L60.9,116.6 L60.8,115.9 L60.6,115.2 L60.5,114.4 L60.4,113.7 L60.3,112.9 L60.2,112.2 L60.1,111.4 L60.1,110.6 L60,109.8 L59.9,109 L59.9,108.1 L59.8,107.3 L59.8,106.4 L59.8,105.6 L59.7,104.7 L59.7,103.9 L59.7,103 L59.7,102.1 L59.8,101.2 L59.8,100.3 L59.8,99.4 L59.9,98.4 L59.9,97.5 L60,96.6 L60.1,95.6 L60.2,94.7 L60.3,93.7 L60.4,92.7 L60.6,91.7 L60.7,90.7 L60.9,89.7 L61.1,88.7 L61.3,87.7 L61.5,86.7 L61.7,85.7 L61.9,84.7 L62.2,83.6 L62.5,82.6 L62.7,81.6 L63,80.5 L63.3,79.5 L63.7,78.4 L64,77.4 L64.4,76.3 L64.8,75.2 L65.2,74.2 L65.6,73.1 L66,72 L66.5,70.9 L66.9,69.9 L67.4,68.8 L67.9,67.7 L68.4,66.6 L69,65.6 L69.5,64.5 L70.1,63.4 L70.7,62.3 L71.3,61.2 L71.9,60.2 L72.6,59.1 L73.3,58 L73.9,56.9 L74.6,55.9 L75.4,54.8 L76.1,53.8 L76.9,52.7 L77.7,51.6 L78.5,50.6 L79.3,49.6 L80.1,48.5 L81,47.5 L81.9,46.5 L82.8,45.5 L83.7,44.4 L84.6,43.4 L85.6,42.4 L86.5,41.5 L87.5,40.5 L88.6,39.5 L89.6,38.6 L90.6,37.6 L91.7,36.7 L92.8,35.7 L93.9,34.8 L95,33.9 L96.2,33 L97.3,32.2 L98.5,31.3 L99.7,30.4 L100.9,29.6 L102.1,28.8 L103.4,27.9 L104.7,27.1 L105.9,26.4 L107.2,25.6 L108.5,24.8 L109.9,24.1 L111.2,23.4 L112.6,22.7 L114,22 L115.4,21.3 L116.8,20.7 L118.2,20 L119.6,19.4 L121.1,18.8 L122.6,18.2 L124,17.7 L125.5,17.1 L127,16.6 L128.6,16.1 L130.1,15.6 L131.6,15.2 L133.2,14.7 L134.8,14.3 L136.4,13.9 L137.9,13.5 L139.5,13.2 L141.2,12.9 L142.8,12.6 L144.4,12.3 L146,12 L147.7,11.8 L149.4,11.6 L151,11.4 L152.7,11.2 L154.4,11.1 L156.1,10.9 L157.7,10.9 L159.4,10.8 L161.1,10.7 L162.9,10.7 L164.6,10.7 L166.3,10.8 L168,10.8 L169.7,10.9 L171.4,11 L173.2,11.2 L174.9,11.3 L176.6,11.5 L178.4,11.7 L180.1,12 L181.8,12.2 L183.6,12.5 L185.3,12.8 L187,13.2 L188.8,13.5 L190.5,13.9 L192.2,14.4 L193.9,14.8 L195.7,15.3 L197.4,15.8 L199.1,16.3 L200.8,16.9 L202.5,17.5 L204.2,18.1 L205.9,18.7 L207.5,19.4 L209.2,20.1 L210.9,20.8 L212.5,21.5 L214.2,22.3 L215.8,23.1 L217.4,23.9 L219.1,24.7 L220.7,25.6 L222.3,26.5 L223.8,27.4 L225.4,28.3 L227,29.3 L228.5,30.3 L230.1,31.3 L231.6,32.3 L233.1,33.4 L234.6,34.5 L236.1,35.6 L237.5,36.7 L239,37.8 L240.4,39 L241.8,40.2 L243.2,41.4 L244.6,42.7 L246,43.9 L247.3,45.2 L248.6,46.5 L249.9,47.8 L251.2,49.2 L252.5,50.6 L253.7,51.9 L255,53.3 L256.2,54.8 L257.4,56.2 L258.5,57.7 L259.7,59.1 L260.8,60.6 L261.9,62.1 L263,63.7 L264,65.2 L265.1,66.8 L266.1,68.3 L267.1,69.9 L268,71.5 L268.9,73.2 L269.9,74.8 L270.8,76.4 L271.6,78.1 L272.5,79.8 L273.3,81.4 L274.1,83.1 L274.8,84.8 L275.6,86.6 L276.3,88.3 L277,90 L277.6,91.8 L278.2,93.5 L278.8,95.3 L279.4,97.1 L280,98.8 L280.5,100.6 L281,102.4 L281.5,104.2 L281.9,106 L282.3,107.8 L282.7,109.6 L283.1,111.5 L283.4,113.3 L283.7,115.1 L284,116.9 L284.3,118.8 L284.5,120.6 L284.7,122.4 L284.8,124.3 L285,126.1 L285.1,127.9 L285.2,129.8 L285.3,131.6 L285.3,133.4 L285.3,135.3 L285.3,137.1 L285.2,138.9 L285.1,140.8 L285,142.6 L284.9,144.4 L284.7,146.2 L284.6,148 L284.4,149.8 L284.1,151.6 L283.9,153.4 L283.6,155.1 L283.3,156.9 L282.9,158.7 L282.5,160.4 L282.2,162.2 L281.7,163.9 L281.3,165.6 L280.8,167.4 L280.3,169.1 L279.8,170.8 L279.3,172.5 L278.7,174.1 L278.1,175.8 L277.5,177.4 L276.9,179.1 L276.2,180.7 L275.6,182.3 L274.9,183.9 L274.1,185.5 L273.4,187.1 L272.6,188.6 L271.9,190.1 L271,191.7 L270.2,193.2 L269.4,194.7 L268.5,196.1 L267.6,197.6 L266.7,199 L265.8,200.5 L264.9,201.9 L263.9,203.2 L262.9,204.6 L261.9,206 L260.9,207.3 L259.9,208.6 L258.9,209.9 L257.8,211.2 L256.7,212.4 L255.6,213.7 L254.5,214.9 L253.4,216.1 L252.3,217.3 L251.1,218.4 L250,219.5 L248.8,220.7 L247.6,221.7 L246.4,222.8 L245.2,223.9 L244,224.9 L242.8,225.9 L241.6,226.9 L240.3,227.8 L239.1,228.8 L237.8,229.7 L236.5,230.6 L235.3,231.5 L234,232.3 L232.7,233.2 L231.4,234 L230.1,234.8 L228.8,235.5 L227.5,236.3 L226.1,237 L224.8,237.7 L223.5,238.4 L222.2,239 L220.8,239.7 L219.5,240.3 L218.1,240.9 L216.8,241.4 L215.5,242 L214.1,242.5 L212.8,243 L211.4,243.5 L210.1,244 L208.7,244.4 L207.4,244.8 L206,245.2 L204.7,245.6 L203.4,245.9 L202,246.3 L200.7,246.6 L199.3,246.9 L198,247.2 L196.7,247.4 L195.4,247.6 L194,247.9 L192.7,248.1 L191.4,248.2 L190.1,248.4 L188.8,248.5 L187.5,248.6 L186.3,248.7 L185,248.8 L183.7,248.9 L182.4,248.9 L181.2,249 L179.9,249 L178.7,249 L177.5,248.9 L176.2,248.9 L175,248.8 L173.8,248.8 L172.6,248.7 L171.4,248.6 L170.3,248.5 L169.1,248.3 L167.9,248.2 L166.8,248 L165.6,247.9 L164.5,247.7 L163.4,247.5 L162.3,247.3 L161.2,247 L160.1,246.8 L159.1,246.5 L158,246.3 L157,246 L155.9,245.7 L154.9,245.4 L153.9,245.1 L152.9,244.8 L151.9,244.5 L150.9,244.1 L150,243.8 L149,243.4 L148.1,243.1 L147.2,242.7 L146.3,242.3 L145.4,242 L144.5,241.6 L143.6,241.2 L142.8,240.8 L141.9,240.3 L141.1,239.9 L140.3,239.5 L139.5,239.1 L138.7,238.6 L137.9,238.2 L137.1,237.8 L136.4,237.3 L135.6,236.9 L134.9,236.4 L134.2,236 L133.5,235.5 L132.8,235.1 L132.1,234.6 L131.5,234.1 L130.8,233.7 L130.2,233.2 L129.6,232.7 L128.9,232.3 L128.3,231.8 L127.7,231.3 L127.2,230.9 L126.6,230.4 L126,229.9 L125.5,229.5 L125,229 L124.4,228.5 L123.9,228.1 L123.4,227.6 L122.9,227.2 L122.4,226.7 L122,226.2 L121.5,225.8 L121.1,225.4 L120.6,224.9 L120.2,224.5 L119.8,224 L119.3,223.6 L118.9,223.2 L118.5,222.8 L118.1,222.3 L117.8,221.9 L117.4,221.5 L117,221.1 L116.6,220.7 L116.3,220.3 L115.9,219.9 L115.6,219.6 L115.3,219.2 L114.9,218.8 L114.6,218.4 L114.3,218.1 L114,217.7 L113.7,217.4 L113.4,217 L113.1,216.7 L112.8,216.4 L112.5,216 L112.2,215.7 L111.9,215.4 L111.6,215.1 L111.3,214.8 L111.1,214.5 L110.8,214.2 L110.5,214 L110.2,213.7 L110,213.4 L109.7,213.2 L109.4,212.9 L109.2,212.7 L108.9,212.4 L108.6,212.2 L108.4,212 L108.1,211.7 L107.8,211.5 L107.5,211.3 L107.3,211.1 L107,210.9 L106.7,210.7 L106.5,210.5 L106.2,210.4 L105.9,210.2 L105.6,210 L105.3,209.9 L105,209.7 L104.7,209.5 L104.4,209.4 L104.1,209.2 L103.8,209.1 L103.5,209 L103.2,208.8 L102.9,208.7 L102.6,208.6 L102.3,208.5 L101.9,208.3 L101.6,208.2 L101.2,208.1 L100.9,208 L100.5,207.9 L100.2,207.8 L99.8,207.7 L99.4,207.6 L99.1,207.5 L98.7,207.4 L98.3,207.3 L97.9,207.2 L97.5,207.1 L97.1,207 L96.6,206.9 L96.2,206.9 L95.8,206.8 L95.3,206.7 L94.9,206.6 L94.4,206.5 L94,206.4 L93.5,206.3 L93,206.2 L92.5,206.1 L92,206 L91.5,205.9 L91,205.8 L90.5,205.7 L90,205.5 L89.4,205.4 L88.9,205.3 L88.3,205.2 L87.8,205 L87.2,204.9 L86.6,204.8 L86.1,204.6 L85.5,204.5 L84.9,204.3 L84.3,204.1 L83.6,204 L83,203.8 L82.4,203.6 L81.8,203.4 L81.1,203.2 L80.5,203 L79.8,202.8 L79.1,202.6 L78.5,202.3 L77.8,202.1 L77.1,201.8 L76.4,201.6 L75.7,201.3 L75,201 L74.3,200.7 L73.6,200.4 L72.9,200.1 L72.2,199.8 L71.4,199.5 L70.7,199.1 L70,198.8 L69.2,198.4 L68.5,198 L67.7,197.6 L67,197.2 L66.2,196.8 L65.4,196.4 L64.7,195.9 L63.9,195.5 L63.1,195 L62.4,194.5 L61.6,194 L60.8,193.5 L60,193 L59.2,192.4 L58.5,191.9 L57.7,191.3 L56.9,190.7 L56.1,190.1 L55.3,189.5 L54.6,188.9 L53.8,188.2 L53,187.6 L52.2,186.9 L51.5,186.2 L50.7,185.5 L49.9,184.8 L49.2,184 L48.4,183.3 L47.6,182.5 L46.9,181.7 L46.1,180.9 L45.4,180.1 L44.6,179.2 L43.9,178.4 L43.2,177.5 L42.4,176.6 L41.7,175.7 L41,174.8 L40.3,173.9 L39.6,172.9 L38.9,172 L38.2,171 L37.6,170 L36.9,169 L36.3,168 L35.6,166.9 L35,165.8 L34.4,164.8 L33.8,163.7 L33.1,162.6 L32.6,161.5 L32,160.3 L31.4,159.2 L30.9,158 L30.3,156.8 L29.8,155.6 L29.3,154.4 L28.8,153.2 L28.3,152 L27.8,150.7 L27.4,149.4 L26.9,148.2 L26.5,146.9 L26.1,145.6 L25.7,144.3 L25.3,142.9 L25,141.6 L24.6,140.2 L24.3,138.9 L24,137.5 L23.7,136.1 L23.4,134.7 L23.2,133.3 L22.9,131.9 L22.7,130.4 L22.5,129 L22.4,127.6 L22.2,126.1 L22.1,124.6 L22,123.2 L21.9,121.7 L21.8,120.2 L21.7,118.7 L21.7,117.2 L21.7,115.7 L21.7,114.1 L21.7,112.6 L21.8,111.1 L21.9,109.6 L22,108 L22.1,106.5 L22.3,104.9 L22.4,103.4 L22.6,101.8 L22.8,100.2 L23.1,98.7 L23.4,97.1 L23.6,95.6 L24,94 L24.3,92.4 L24.7,90.9 L25,89.3 L25.4,87.7 L25.9,86.2 L26.3,84.6 L26.8,83 L27.3,81.5 L27.9,79.9 L28.4,78.3 L29,76.8 L29.6,75.2 L30.2,73.7 L30.9,72.2 L31.6,70.6 L32.3,69.1 L33,67.6 L33.7,66.1 L34.5,64.6 L35.3,63.1 L36.1,61.6 L37,60.1 L37.9,58.6 L38.8,57.1 L39.7,55.7 L40.6,54.2 L41.6,52.8 L42.6,51.4 L43.6,50 L44.6,48.6 L45.7,47.2 L46.8,45.8 L47.9,44.4 L49,43.1 L50.2,41.7 L51.3,40.4 L52.5,39.1 L53.7,37.8 L55,36.6 L56.2,35.3 L57.5,34.1 L58.8,32.8 L60.1,31.6 L61.5,30.4 L62.8,29.3 L64.2,28.1 L65.6,27 L67,25.8 L68.5,24.8 L69.9,23.7 L71.4,22.6 L72.9,21.6 L74.4,20.6 L75.9,19.6 L77.5,18.6 L79,17.6 L80.6,16.7 L82.2,15.8 L83.8,14.9 L85.4,14.1 L87.1,13.2 L88.7,12.4 L90.4,11.6 L92.1,10.9 L93.7,10.1 L95.4,9.4 L97.2,8.7 L98.9,8 L100.6,7.4 L102.4,6.8 L104.1,6.2 L105.9,5.6 L107.7,5.1 L109.5,4.6 L111.3,4.1 L113.1,3.6 L114.9,3.2 L116.7,2.8 L118.5,2.4 L120.3,2.1 L122.2,1.7 L124,1.4 L125.9,1.2 L127.7,0.9 L129.6,0.7 L131.4,0.5 L133.3,0.4 L135.2,0.2 L137,0.1 L138.9,0.1 L140.8,0 L142.6,0 L144.5,0 L146.4,0 L148.2,0.1 L150.1,0.2 L152,0.3 L153.8,0.5 L155.7,0.6 L157.6,0.8 L159.4,1.1 L161.3,1.3 L163.1,1.6 L164.9,1.9 L166.8,2.3 L168.6,2.6 L170.4,3 L172.2,3.5 L174,3.9 L175.8,4.4 L177.6,4.9 L179.4,5.4 L181.2,6 L183,6.6 L184.7,7.2 L186.4,7.8 L188.2,8.5 L189.9,9.1 L191.6,9.8 L193.3,10.6 L195,11.3 L196.6,12.1 L198.3,12.9 L199.9,13.7 L201.6,14.6 L203.2,15.5 L204.8,16.4 L206.4,17.3 L207.9,18.2 L209.5,19.2 L211,20.2 L212.5,21.2 L214,22.2 L215.5,23.3 L217,24.3 L218.4,25.4 L219.8,26.5 L221.2,27.7 L222.6,28.8 L224,30 L225.3,31.2 L226.7,32.4 L228,33.6 L229.3,34.8 L230.5,36.1 L231.8,37.3 L233,38.6 L234.2,39.9 L235.4,41.2 L236.5,42.6 L237.7,43.9 L238.8,45.3 L239.9,46.6 L241,48 L242,49.4 L243,50.8 L244,52.2 L245,53.7 L246,55.1 L246.9,56.6 L247.8,58 L248.7,59.5 L249.5,61 L250.4,62.5 L251.2,64 L252,65.5 L252.7,67 L253.5,68.5 L254.2,70 L254.9,71.6 L255.5,73.1 L256.2,74.6 L256.8,76.2 L257.4,77.7 L257.9,79.3 L258.5,80.9 L259,82.4 L259.5,84 L259.9,85.5 L260.4,87.1 L260.8,88.7 L261.2,90.2 L261.6,91.8 L261.9,93.4 L262.2,94.9 L262.5,96.5 L262.8,98.1 L263.1,99.6 L263.3,101.2 L263.5,102.8 L263.7,104.3 L263.8,105.9 L264,107.4 L264.1,109 L264.2,110.5 L264.2,112 L264.3,113.6 L264.3,115.1 L264.3,116.6 L264.3,118.1 L264.2,119.6 L264.2,121.1 L264.1,122.6 L264,124.1 L263.8,125.5 L263.7,127 L263.5,128.4 L263.3,129.9 L263.1,131.3 L262.9,132.7 L262.7,134.2 L262.4,135.6 L262.1,136.9 L261.8,138.3 L261.5,139.7 L261.2,141.1 L260.8,142.4 L260.4,143.7 L260.1,145.1 L259.7,146.4 L259.2,147.7 L258.8,148.9 L258.4,150.2 L257.9,151.5 L257.4,152.7 L256.9,153.9 L256.4,155.2 L255.9,156.4 L255.3,157.5 L254.8,158.7 L254.2,159.9 L253.7,161 L253.1,162.1 L252.5,163.3 L251.9,164.4 L251.3,165.4 L250.6,166.5 L250,167.5 L249.3,168.6 L248.7,169.6 L248,170.6 L247.3,171.6 L246.7,172.6 L246,173.5 L245.3,174.5 L244.5,175.4 L243.8,176.3 L243.1,177.2 L242.4,178.1 L241.7,178.9 L240.9,179.8 L240.2,180.6 L239.4,181.4 L238.7,182.2 L237.9,183 L237.1,183.7 L236.4,184.5 L235.6,185.2 L234.8,185.9 L234.1,186.6 L233.3,187.3 L232.5,188 L231.7,188.6 L231,189.3 L230.2,189.9 L229.4,190.5 L228.6,191.1 L227.8,191.6 L227.1,192.2 L226.3,192.8 L225.5,193.3 L224.7,193.8 L223.9,194.3 L223.2,194.8 L222.4,195.3 L221.6,195.7 L220.9,196.2 L220.1,196.6 L219.3,197.1 L218.6,197.5 L217.8,197.9 L217.1,198.3 L216.3,198.6 L215.6,199 L214.9,199.3 L214.1,199.7 L213.4,200 L212.7,200.3 L212,200.6 L211.3,200.9 L210.6,201.2 L209.9,201.5 L209.2,201.7 L208.5,202 L207.8,202.2 L207.1,202.5 L206.5,202.7 L205.8,202.9 L205.1,203.1 L204.5,203.3 L203.9,203.5 L203.2,203.7 L202.6,203.9 L202,204.1 L201.4,204.2 L200.8,204.4 L200.2,204.6 L199.6,204.7 L199,204.9 L198.4,205 L197.9,205.1 L197.3,205.3 L196.8,205.4 L196.2,205.5 L195.7,205.6 L195.2,205.7 L194.7,205.8 L194.2,205.9 L193.7,206.1 L193.2,206.2 L192.7,206.3 L192.2,206.3 L191.7,206.4 L191.3,206.5 L190.8,206.6 L190.4,206.7 L189.9,206.8 L189.5,206.9 L189.1,207 L188.7,207.1 L188.3,207.2 L187.9,207.3 L187.5,207.4 L187.1,207.5 L186.7,207.6 L186.3,207.7 L186,207.8 L185.6,207.9 L185.2,208 L184.9,208.1 L184.5,208.2 L184.2,208.3 L183.9,208.4 L183.5,208.5 L183.2,208.7 L182.9,208.8 L182.6,208.9 L182.3,209.1 L182,209.2 L181.7,209.3 L181.4,209.5 L181.1,209.6 L180.8,209.8 L180.5,210 L180.2,210.1 L179.9,210.3 L179.7,210.5 L179.4,210.7 L179.1,210.8 L178.8,211 L178.6,211.2 L178.3,211.4 L178,211.7 L177.7,211.9 L177.5,212.1 L177.2,212.3 L176.9,212.6 L176.7,212.8 L176.4,213.1 L176.1,213.3 L175.9,213.6 L175.6,213.9 L175.3,214.1 L175.1,214.4 L174.8,214.7 L174.5,215 L174.2,215.3 L173.9,215.6 L173.6,215.9 L173.4,216.2 L173.1,216.6 L172.8,216.9 L172.5,217.2 L172.1,217.6 L171.8,217.9 L171.5,218.3 L171.2,218.7 L170.9,219 L170.5,219.4 L170.2,219.8 L169.8,220.2 L169.5,220.6 L169.1,221 L168.8,221.4 L168.4,221.8 L168,222.2 L167.6,222.6 L167.2,223 L166.8,223.4 L166.4,223.9 L166,224.3 L165.6,224.7 L165.1,225.2 L164.7,225.6 L164.2,226.1 L163.7,226.5 L163.3,227 L162.8,227.4 L162.3,227.9 L161.8,228.4 L161.2,228.8 L160.7,229.3 L160.2,229.7 L159.6,230.2 L159.1,230.7 L158.5,231.1 L157.9,231.6 L157.3,232.1 L156.7,232.5 L156.1,233 L155.4,233.5 L154.8,233.9 L154.1,234.4 L153.4,234.9 L152.8,235.3 L152.1,235.8 L151.4,236.2 L150.6,236.7 L149.9,237.1 L149.2,237.6 L148.4,238 L147.6,238.5 L146.8,238.9 L146,239.3 L145.2,239.8 L144.4,240.2 L143.6,240.6 L142.7,241 L141.8,241.4 L141,241.8 L140.1,242.2 L139.2,242.6 L138.3,242.9 L137.3,243.3 L136.4,243.7 L135.4,244 L134.5,244.3 L133.5,244.7 L132.5,245 L131.5,245.3 L130.5,245.6 L129.4,245.9 L128.4,246.2 L127.4,246.4 L126.3,246.7 L125.2,246.9 L124.1,247.2 L123,247.4 L121.9,247.6 L120.8,247.8 L119.7,248 L118.5,248.1 L117.4,248.3 L116.2,248.4 L115,248.5 L113.8,248.7 L112.7,248.7 L111.5,248.8 L110.2,248.9 L109,248.9 L107.8,249 L106.6,249 L105.3,249 L104.1,248.9 L102.8,248.9 L101.5,248.8 L100.2,248.8 L99,248.7 L97.7,248.6 L96.4,248.4 L95.1,248.3 L93.8,248.1 L92.5,247.9 L91.1,247.7 L89.8,247.5 L88.5,247.3 L87.2,247 L85.8,246.7 L84.5,246.4 L83.2,246.1 L81.8,245.7 L80.5,245.4 L79.1,245 L77.8,244.6 L76.4,244.1 L75.1,243.7 L73.8,243.2 L72.4,242.7 L71.1,242.2 L69.7,241.7 L68.4,241.1 L67,240.5 L65.7,239.9 L64.4,239.3 L63,238.6 L61.7,238 L60.4,237.3 L59,236.6 L57.7,235.8 L56.4,235.1 L55.1,234.3 L53.8,233.5 L52.5,232.7 L51.2,231.8 L49.9,231 L48.7,230.1 L47.4,229.2 L46.2,228.2 L44.9,227.3 L43.7,226.3 L42.4,225.3 L41.2,224.3 L40,223.2 L38.8,222.2 L37.6,221.1 L36.5,220 L35.3,218.8 L34.2,217.7 L33,216.5 L31.9,215.3 L30.8,214.1 L29.7,212.9 L28.6,211.7 L27.6,210.4 L26.5,209.1 L25.5,207.8 L24.5,206.5 L23.5,205.1 L22.5,203.8 L21.5,202.4 L20.6,201 L19.6,199.6 L18.7,198.2 L17.8,196.7 L17,195.2 L16.1,193.8 L15.3,192.3 L14.5,190.7 L13.7,189.2 L12.9,187.7 L12.1,186.1 L11.4,184.5 L10.7,182.9 L10,181.3 L9.4,179.7 L8.7,178.1 L8.1,176.4 L7.5,174.8 L6.9,173.1 L6.4,171.4 L5.9,169.7 L5.4,168 L4.9,166.3 L4.4,164.6 L4,162.9 L3.6,161.1 L3.2,159.4 L2.9,157.6 L2.6,155.8 L2.3,154.1 L2,152.3 L1.7,150.5 L1.5,148.7 L1.3,146.9 L1.2,145.1 L1,143.3 L0.9,141.5 L0.8,139.6 L0.8,137.8 L0.7,136 L0.7,134.2 L0.7,132.3 L0.8,130.5 L0.9,128.7 L1,126.8 L1.1,125 L1.3,123.2 L1.4,121.3 L1.7,119.5 L1.9,117.7 L2.2,115.8 L2.5,114 L2.8,112.2 L3.1,110.4 L3.5,108.5 L3.9,106.7 L4.4,104.9 L4.8,103.1 L5.3,101.3 L5.8,99.5 L6.4,97.8 L6.9,96 L7.5,94.2 L8.1,92.5 L8.8,90.7 L9.5,89 L10.2,87.2 L10.9,85.5 L11.6,83.8 L12.4,82.1 L13.2,80.4 L14.1,78.7 L14.9,77.1 L15.8,75.4 L16.7,73.8 L17.6,72.2 L18.6,70.6 L19.5,69 L20.5,67.4 L21.6,65.8 L22.6,64.3 L23.7,62.7 L24.8,61.2 L25.9,59.7 L27,58.2 L28.2,56.8 L29.4,55.3 L30.6,53.9 L31.8,52.5 L33,51.1 L34.3,49.7 L35.6,48.4 L36.9,47 L38.2,45.7 L39.5,44.4 L40.9,43.2 L42.2,41.9 L43.6,40.7 L45,39.5 L46.5,38.3 L47.9,37.1 L49.4,36 L50.8,34.9 L52.3,33.8 L53.8,32.7 L55.3,31.7 L56.9,30.7 L58.4,29.7 L60,28.7 L61.5,27.7 L63.1,26.8 L64.7,25.9 L66.3,25 L67.9,24.2 L69.6,23.4 L71.2,22.6 L72.8,21.8 L74.5,21 L76.1,20.3 L77.8,19.6 L79.5,19 L81.2,18.3 L82.9,17.7 L84.6,17.1 L86.3,16.5 L88,16 L89.7,15.5 L91.4,15 L93.1,14.5 L94.8,14.1 L96.6,13.7 L98.3,13.3 L100,13 L101.8,12.6 L103.5,12.3 L105.2,12.1 L107,11.8 L108.7,11.6 L110.4,11.4 L112.1,11.2 L113.9,11.1 L115.6,10.9 L117.3,10.9 L119.1,10.8 L120.8,10.7 L122.5,10.7 L124.2,10.7 L125.9,10.8 L127.6,10.8 L129.3,10.9 L131,11 L132.7,11.1 L134.3,11.3 L136,11.5 L137.7,11.7 L139.3,11.9 L141,12.2 L142.6,12.4 L144.2,12.7 L145.8,13.1 L147.4,13.4 L149,13.8 L150.6,14.1 L152.2,14.6 L153.8,15 L155.3,15.4 L156.8,15.9 L158.4,16.4 L159.9,16.9 L161.4,17.4 L162.9,18 L164.3,18.6 L165.8,19.2 L167.2,19.8 L168.7,20.4 L170.1,21.1 L171.5,21.7 L172.9,22.4 L174.2,23.1 L175.6,23.8 L176.9,24.5 L178.3,25.3 L179.6,26.1 L180.9,26.8 L182.1,27.6 L183.4,28.4 L184.6,29.3 L185.8,30.1 L187,30.9 L188.2,31.8 L189.4,32.7 L190.5,33.6 L191.7,34.5 L192.8,35.4 L193.9,36.3 L195,37.2 L196,38.2 L197.1,39.1 L198.1,40.1 L199.1,41.1 L200.1,42.1 L201,43.1 L202,44.1 L202.9,45.1 L203.8,46.1 L204.7,47.1 L205.5,48.1 L206.4,49.2 L207.2,50.2 L208,51.2 L208.8,52.3 L209.6,53.3 L210.3,54.4 L211.1,55.5 L211.8,56.5 L212.5,57.6 L213.2,58.7 L213.8,59.7 L214.5,60.8 L215.1,61.9 L215.7,63 L216.3,64.1 L216.8,65.1 L217.4,66.2 L217.9,67.3 L218.4,68.4 L218.9,69.4 L219.4,70.5 L219.8,71.6 L220.3,72.7 L220.7,73.7 L221.1,74.8 L221.5,75.9 L221.8,76.9 L222.2,78 L222.5,79.1 L222.8,80.1 L223.2,81.2 L223.4,82.2 L223.7,83.2 L224,84.3 L224.2,85.3 L224.4,86.3 L224.7,87.3 L224.9,88.4 L225,89.4 L225.2,90.4 L225.4,91.3 L225.5,92.3 L225.6,93.3 L225.8,94.3 L225.9,95.2 L226,96.2 L226,97.1 L226.1,98.1 L226.2,99 L226.2,99.9 L226.2,100.8 L226.3,101.7 L226.3,102.6 L226.3,103.5 L226.3,104.4 L226.2,105.3 L226.2,106.1 L226.2,107 L226.1,107.8 L226.1,108.6 L226,109.5 L226,110.3 L225.9,111.1 L225.8,111.8 L225.7,112.6 L225.6,113.4 L225.5,114.2 L225.4,114.9 L225.3,115.6 L225.2,116.4 L225,117.1 L224.9,117.8 L224.8,118.5 L224.6,119.2 L224.5,119.9 L224.4,120.5 L224.2,121.2 L224.1,121.8 L223.9,122.5 L223.8,123.1 L223.6,123.7 L223.4,124.3 L223.3,124.9 L223.1,125.5 L222.9,126.1 L222.8,126.6 L222.6,127.2 L222.4,127.8 L222.3,128.3 L222.1,128.8 L221.9,129.4 L221.8,129.9 L221.6,130.4 L221.5,130.9 L221.3,131.4 L221.1,131.8 L221,132.3 L220.8,132.8 L220.7,133.2 L220.5,133.7 L220.4,134.1 L220.2,134.6 L220.1,135 L220,135.4 L219.8,135.8 L219.7,136.2 L219.6,136.6 L219.4,137 L219.3,137.4 L219.2,137.8 L219.1,138.2 L219,138.6 L218.9,139 L218.8,139.3 L218.7,139.7 L218.6,140 L218.5,140.4 L218.5,140.8 L218.4,141.1 L218.3,141.5 L218.3,141.8 L218.2,142.1 L218.2,142.5 L218.1,142.8 L218.1,143.1 L218.1,143.5 L218,143.8 L218,144.1 L218,144.5 L218,144.8" id="spiro" sketch:type="MSShapeGroup"></path>
        </g>
    </g>
</svg>